<svg width="40" height="40" viewBox="0 0 40 40" fill="none" xmlns="http://www.w3.org/2000/svg">
<path d="M20 40C31.0457 40 40 31.0457 40 20C40 8.95431 31.0457 0 20 0C8.95431 0 0 8.95431 0 20C0 31.0457 8.95431 40 20 40Z" fill="#FC2C38"/>
<path d="M30.8056 20.0149C30.8056 23.6911 29.0846 25.4102 26.9228 25.4102C26.328 25.4111 25.7428 25.2608 25.2221 24.9734C24.7014 24.6861 24.2623 24.2711 23.946 23.7674C23.0737 24.6531 21.9207 25.2083 20.6844 25.338C19.448 25.4678 18.205 25.164 17.1678 24.4787C16.1306 23.7934 15.3636 22.7691 14.9981 21.5809C14.6325 20.3927 14.691 19.1144 15.1636 17.9646C15.6362 16.8147 16.4935 15.8648 17.589 15.2771C18.6844 14.6894 19.95 14.5005 21.1694 14.7426C22.3887 14.9847 23.4861 15.6429 24.2739 16.6046C25.0617 17.5663 25.491 18.7717 25.4883 20.0149V21.7674C25.4883 22.6549 26.1135 23.28 26.9228 23.28C27.8865 23.28 28.6679 22.4707 28.6679 20.0204C28.6778 18.1096 28.0506 16.2499 26.8856 14.7352C25.7205 13.2206 24.0839 12.1374 22.2344 11.6568C20.3849 11.1762 18.428 11.3256 16.6729 12.0815C14.9178 12.8373 13.4646 14.1564 12.543 15.8304C11.6214 17.5044 11.2839 19.4377 11.5838 21.325C11.8838 23.2122 12.804 24.9456 14.1992 26.2514C15.5944 27.5572 17.3849 28.3608 19.2878 28.5353C21.1908 28.7098 23.0976 28.2452 24.7069 27.2149L26.1135 28.8316C24.3402 30.043 22.2405 30.6867 20.093 30.6772C17.979 30.6724 15.9138 30.0408 14.1588 28.8623C12.4037 27.6838 11.0375 26.0113 10.233 24.0563C9.42853 22.1013 9.22184 19.9517 9.6391 17.8792C10.0564 15.8068 11.0788 13.9046 12.5772 12.4133C14.0755 10.922 15.9825 9.90845 18.0569 9.50094C20.1313 9.09343 22.2799 9.31022 24.2311 10.1239C26.1823 10.9376 27.8483 12.3116 29.0186 14.0722C30.1888 15.8328 30.8107 17.9008 30.8056 20.0149ZM20.119 23.2744C20.7637 23.2744 21.3939 23.0832 21.9299 22.7251C22.466 22.3669 22.8837 21.8578 23.1305 21.2622C23.3772 20.6666 23.4417 20.0113 23.3159 19.379C23.1902 18.7467 22.8797 18.1659 22.4239 17.71C21.968 17.2542 21.3872 16.9437 20.7549 16.818C20.1227 16.6922 19.4673 16.7567 18.8717 17.0035C18.2761 17.2502 17.767 17.6679 17.4088 18.204C17.0507 18.74 16.8595 19.3702 16.8595 20.0149C16.8595 20.8794 17.2029 21.7084 17.8142 22.3197C18.4255 22.931 19.2546 23.2744 20.119 23.2744Z" fill="white"/>
</svg>
