<svg width="132" height="79" viewBox="0 0 132 79" fill="none" xmlns="http://www.w3.org/2000/svg">
<g clip-path="url(#clip0_109_2937)">
<path d="M0 1.50391H20.6162V9.57507H9.2174V21.8244H19.913V29.5417H9.2174V49.2249H0V1.50391Z" fill="#93C252"/>
<path d="M27.5822 2.21166C30.4669 1.64569 34.1257 1.29102 37.6445 1.29102C42.7107 1.29102 47.2136 1.99953 50.3099 4.83106C53.1946 7.45129 54.0395 10.6367 54.0395 14.7435C54.0395 19.8414 51.5765 24.4438 46.7219 26.7094V26.8511C49.9591 28.1256 51.5773 31.1701 52.4914 36.268C53.4063 41.5781 54.6728 47.4549 55.5169 49.225H45.877C45.3146 47.8801 44.2589 43.0647 43.5548 37.8259C42.7107 31.8786 41.2325 30.179 38.137 30.179H36.8005V49.225H27.5822V2.21166ZM36.8005 23.0285H38.4186C42.429 23.0285 44.7513 19.7719 44.7513 15.5937C44.7513 11.5581 43.1331 8.65451 38.9819 8.5128C38.2078 8.5128 37.2929 8.58323 36.8005 8.79621V23.0285Z" fill="#93C252"/>
<path d="M132 47.9513C129.959 48.8007 125.597 49.6509 122.149 49.6509C116.732 49.6509 112.65 48.093 109.484 44.9068C105.403 40.9416 103.221 33.8616 103.363 25.6479C103.574 8.30064 113.424 1.07886 123.487 1.07886C127.075 1.07886 129.749 1.78653 131.227 2.49504L129.609 10.4958C128.272 9.78726 126.512 9.43343 124.191 9.43343C117.928 9.43343 112.933 13.7524 112.933 26.2138C112.933 37.6842 117.366 41.791 121.658 41.791C122.502 41.791 123.136 41.7198 123.488 41.5781V30.0381H119.265V22.4617H132.001V47.9513H132Z" fill="#93C252"/>
<path d="M69.8588 19.2805C73.5582 19.2805 76.5573 15.2059 76.5573 10.1797C76.5573 5.15343 73.5582 1.07886 69.8588 1.07886C66.1593 1.07886 63.1603 5.15343 63.1603 10.1797C63.1603 15.2059 66.1593 19.2805 69.8588 19.2805Z" fill="#93C252"/>
<path d="M69.8588 19.5388C66.0208 19.5388 62.8995 15.3397 62.8995 10.1789C62.8986 5.01891 66.0208 0.819824 69.8588 0.819824C73.6967 0.819824 76.8181 5.01891 76.8181 10.1797C76.8181 15.3405 73.6959 19.5388 69.8588 19.5388ZM69.8588 1.338C66.3091 1.338 63.4219 5.30399 63.4219 10.1797C63.4219 15.0555 66.31 19.0214 69.8588 19.0214C73.4076 19.0214 76.2956 15.0546 76.2956 10.1797C76.2956 5.30483 73.4076 1.338 69.8588 1.338Z" fill="#1D1D1B"/>
<path d="M89.0277 19.2805C92.7271 19.2805 95.7262 15.2059 95.7262 10.1797C95.7262 5.15343 92.7271 1.07886 89.0277 1.07886C85.3282 1.07886 82.3292 5.15343 82.3292 10.1797C82.3292 15.2059 85.3282 19.2805 89.0277 19.2805Z" fill="#93C252"/>
<path d="M89.0277 19.5388C85.1897 19.5388 82.0684 15.3397 82.0684 10.1789C82.0684 5.01891 85.1897 0.819824 89.0277 0.819824C92.8656 0.819824 95.987 5.01891 95.987 10.1797C95.987 15.3405 92.8648 19.5388 89.0277 19.5388ZM89.0277 1.338C85.478 1.338 82.5908 5.30399 82.5908 10.1797C82.5908 15.0555 85.4789 19.0214 89.0277 19.0214C92.5773 19.0214 95.4645 15.0546 95.4645 10.1797C95.4645 5.30483 92.5773 1.338 89.0277 1.338Z" fill="#1D1D1B"/>
<path d="M79.3786 45.2742C88.3358 45.2742 95.597 36.8345 95.597 26.4236C95.597 16.0127 88.3358 7.573 79.3786 7.573C70.4215 7.573 63.1603 16.0127 63.1603 26.4236C63.1603 36.8345 70.4215 45.2742 79.3786 45.2742Z" fill="#93C252"/>
<path d="M79.2253 44.8281C88.3385 44.8281 95.7262 38.2906 95.7262 30.2261C95.7262 22.1616 88.3385 15.624 79.2253 15.624C70.1122 15.624 62.7245 22.1616 62.7245 30.2261C62.7245 38.2906 70.1122 44.8281 79.2253 44.8281Z" fill="#F0EEAC"/>
<path d="M99.3566 26.4135C99.3566 41.2889 90.2376 49.1764 79.1128 49.1764C67.6007 49.1764 59.5165 40.328 59.5165 27.2469C59.5165 13.5253 68.1181 4.54858 79.7603 4.54858C91.6599 4.54858 99.3566 13.5899 99.3566 26.4135ZM65.5309 27.1195C65.5309 36.3528 70.5754 44.6243 79.4361 44.6243C88.3611 44.6243 93.4056 36.4811 93.4056 26.6709C93.4056 18.0791 88.8785 9.10234 79.5003 9.10234C70.1879 9.1015 65.5309 17.6296 65.5309 27.1195Z" fill="#93C252"/>
<path d="M79.1128 49.3475C73.3934 49.3475 68.4681 47.2329 64.8693 43.2308C61.2546 39.212 59.344 33.6848 59.344 27.2478C59.344 13.7828 67.739 4.37842 79.7594 4.37842C85.6022 4.37842 90.5784 6.51569 94.1497 10.5605C97.6685 14.5449 99.5283 20.0269 99.5283 26.4144C99.5283 33.4911 97.4543 39.3965 93.5306 43.4916C89.9134 47.2673 84.7931 49.3475 79.1128 49.3475ZM79.7594 4.71968C67.9415 4.71968 59.6881 13.9831 59.6881 27.247C59.6881 40.058 67.6757 49.0054 79.1128 49.0054C91.3058 49.0054 99.1842 40.1377 99.1842 26.4135C99.1842 13.4381 91.3783 4.71968 79.7594 4.71968ZM79.4361 44.7946C75.2007 44.7946 71.5994 42.9407 69.0214 39.4342C66.6591 36.2212 65.3584 31.8477 65.3584 27.1187C65.3584 18.0657 69.7313 8.9305 79.5003 8.9305C83.8815 8.9305 87.5512 10.8791 90.1117 14.5667C92.3148 17.7387 93.5781 22.1507 93.5781 26.6701C93.5781 31.6473 92.274 36.1767 89.9076 39.4258C87.3487 42.9382 83.7282 44.7946 79.4361 44.7946ZM79.5011 9.27176C69.9696 9.27176 65.7034 18.2351 65.7034 27.1187C65.7034 35.7324 70.4204 44.4525 79.4361 44.4525C88.9677 44.4525 93.2339 35.5211 93.2339 26.6693C93.2339 18.2904 88.9369 9.27176 79.5011 9.27176Z" fill="#1D1D1B"/>
<path d="M94.2896 13.3895C93.5672 12.6952 93.9355 11.7645 94.6054 11.373C92.2715 8.45087 89.1493 6.34378 85.403 5.29736C85.6622 6.24065 84.6173 7.42961 83.4791 6.81249C82.4467 6.25323 80.921 6.32114 79.7786 6.32366C78.2621 6.32701 76.7497 6.46452 75.2316 6.45949C74.9932 6.45865 74.7933 6.40164 74.6225 6.31276C74.4633 6.25993 74.3242 6.17189 74.2075 6.0478C74.08 5.93041 73.99 5.79123 73.9375 5.63108C73.8967 5.5531 73.8667 5.4726 73.8475 5.38876C70.0338 6.51902 66.7641 8.75775 64.3143 11.8978C65.0584 12.2148 65.5584 13.2537 64.8468 14.051C62.1879 17.0301 61.4246 20.8586 61.1355 24.7089C60.8572 28.4091 61.2038 31.9483 62.5462 35.4305C63.8069 38.7005 65.8325 41.7601 68.5114 44.0567C69.2238 44.6671 70.0121 45.3136 70.8528 45.9341C70.8928 45.9399 70.9328 45.945 70.9737 45.9508C73.1543 46.2535 75.3665 46.3642 77.5663 46.4137C80.6777 46.485 83.784 46.3231 86.8812 46.4615C87.3412 46.1043 87.8503 45.8024 88.3236 45.5408C89.8551 44.6956 91.3233 44.159 92.3823 42.6959C93.3639 41.3401 94.108 39.8342 94.9954 38.4121C95.412 37.5107 95.9486 36.658 96.3911 35.7684C96.7461 35.0532 97.0735 34.3304 97.4126 33.6144C97.9309 31.0243 97.8801 28.4016 97.9143 25.7679C97.9726 21.4313 97.6535 16.6218 94.2896 13.3895ZM79.4353 44.6244C70.5745 44.6244 65.53 36.3528 65.53 27.1195C65.53 17.6297 70.1862 9.10236 79.4995 9.10236C88.8768 9.10236 93.4047 18.0791 93.4047 26.6709C93.4047 36.4811 88.3602 44.6244 79.4353 44.6244Z" fill="#93C252"/>
<path d="M86.967 46.7247L86.8704 46.7205C85.1314 46.6425 83.3566 46.6602 81.6401 46.6769C80.3044 46.6895 78.9237 46.7038 77.5613 46.6727C75.7423 46.6316 73.3459 46.5411 70.9378 46.2074L70.7512 46.1814L70.6979 46.142C69.9588 45.5961 69.188 44.979 68.3414 44.2529C65.7292 42.0142 63.6411 38.9948 62.3029 35.5235C61.0405 32.2493 60.5739 28.705 60.8755 24.6896C61.1422 21.137 61.7996 17.0746 64.6518 13.8791C64.9543 13.5404 64.9559 13.1974 64.9043 12.9685C64.8226 12.6072 64.551 12.2802 64.2118 12.1359L63.9019 12.0043L64.1085 11.7402C66.5866 8.56235 69.9288 6.28002 73.7734 5.14054L74.0425 5.06088L74.1033 5.33255C74.1175 5.39459 74.1383 5.45245 74.1692 5.5103L74.1867 5.55139C74.2258 5.67045 74.2908 5.77107 74.3858 5.85827C74.4858 5.96392 74.5858 6.02848 74.7058 6.06789L74.7449 6.08466C74.8941 6.16264 75.0541 6.20121 75.2324 6.20205C76.0081 6.20205 76.7997 6.16851 77.5638 6.13413C78.2879 6.10143 79.037 6.06789 79.7769 6.06621L80.0969 6.06454C81.2143 6.05531 82.605 6.04609 83.6032 6.58607C84.1257 6.86947 84.5273 6.65734 84.7206 6.50641C85.0747 6.22972 85.2547 5.75011 85.1497 5.36609L85.0289 4.92505L85.473 5.04914C89.1885 6.08718 92.4173 8.21858 94.8088 11.2128L94.9946 11.4459L94.7363 11.5968C94.4205 11.7813 94.2005 12.0982 94.1613 12.4244C94.1272 12.7078 94.2338 12.9769 94.4696 13.2042C97.8293 16.4331 98.2359 21.1537 98.1742 25.7729C98.1692 26.1183 98.1667 26.4621 98.1634 26.8067C98.1434 29.0614 98.1226 31.3924 97.6676 33.6663L97.6476 33.7258C97.5393 33.9547 97.4318 34.1845 97.3252 34.4142C97.1002 34.8963 96.8677 35.3952 96.6244 35.8841C96.4269 36.2807 96.2094 36.6748 95.9986 37.0554C95.7345 37.5325 95.462 38.0255 95.232 38.5211L95.217 38.5496C94.8896 39.0736 94.5763 39.6203 94.273 40.1486C93.7547 41.0516 93.2189 41.9848 92.594 42.8484C91.7049 44.076 90.5517 44.6721 89.3301 45.3035C89.041 45.4528 88.7469 45.6054 88.4502 45.7689C88.0436 45.9936 87.5162 46.2979 87.042 46.6669L86.967 46.7247ZM83.8565 46.1445C84.8356 46.1445 85.8213 46.1571 86.7979 46.199C87.2795 45.8351 87.7953 45.5374 88.1969 45.3152C88.4977 45.1492 88.796 44.9949 89.0893 44.8432C90.2542 44.242 91.3541 43.6735 92.1707 42.5458C92.7798 41.7039 93.3089 40.7833 93.8205 39.892C94.1238 39.3637 94.4371 38.8187 94.7654 38.2905C95.0012 37.7832 95.2762 37.286 95.542 36.8064C95.7503 36.4308 95.9653 36.0417 96.1578 35.6552C96.3978 35.1722 96.6294 34.6758 96.8527 34.1971C96.956 33.9757 97.0585 33.7552 97.1627 33.5347C97.6018 31.3177 97.6226 29.022 97.6426 26.8017C97.646 26.4563 97.6485 26.1108 97.6535 25.7654C97.7135 21.2619 97.3243 16.6679 94.1072 13.5748C93.7547 13.236 93.5897 12.805 93.643 12.3623C93.6897 11.9716 93.9072 11.5926 94.228 11.3218C92.004 8.62272 89.0677 6.67159 85.7013 5.65452C85.6822 6.12323 85.4422 6.60116 85.0447 6.91224C84.5506 7.29877 83.9182 7.34657 83.3532 7.03968C82.4742 6.56343 81.1593 6.57181 80.1019 6.58104L79.7794 6.58271C79.0503 6.58439 78.3071 6.61793 77.5888 6.65063C76.8181 6.68501 76.0223 6.72274 75.2316 6.71855C74.9774 6.71771 74.7383 6.66153 74.5208 6.55169C74.3275 6.48461 74.1583 6.37393 74.0175 6.22385C73.8759 6.09472 73.7642 5.92535 73.6976 5.73166C73.6934 5.72412 73.6901 5.71657 73.6867 5.70902C70.1429 6.80994 67.0491 8.91619 64.7101 11.8207C65.0609 12.063 65.3209 12.4378 65.4159 12.8562C65.5267 13.3459 65.3942 13.8313 65.0451 14.2229C62.2962 17.3026 61.6588 21.2619 61.3988 24.7282C61.103 28.6665 61.5588 32.1369 62.7928 35.3391C64.1002 38.7315 66.1375 41.6779 68.6847 43.8613C69.5013 44.5615 70.2454 45.1593 70.9578 45.6867L71.012 45.6942C73.3934 46.0246 75.7698 46.1143 77.5747 46.1546C78.9287 46.1856 80.3052 46.1722 81.6367 46.1587C82.3675 46.152 83.1099 46.1445 83.8565 46.1445ZM79.4353 44.8834C75.1707 44.8834 71.5444 43.0178 68.9489 39.487C66.5758 36.2589 65.2692 31.8669 65.2692 27.1195C65.2692 18.022 69.6696 8.84324 79.5003 8.84324C83.9123 8.84324 87.607 10.8053 90.185 14.5172C92.4307 17.7512 93.6672 22.0668 93.6672 26.6701C93.6672 31.6657 92.3573 36.2136 89.9801 39.4769C87.4028 43.0145 83.7565 44.8834 79.4353 44.8834ZM79.5003 9.36142C70.0304 9.36142 65.7917 18.2803 65.7917 27.1195C65.7917 35.6895 70.4779 44.3652 79.4353 44.3652C88.9052 44.3652 93.1439 35.4782 93.1439 26.6709C93.1439 18.3339 88.8743 9.36142 79.5003 9.36142Z" fill="#93C251"/>
<path d="M88.846 18.8328C78.8737 12.26 69.9529 18.7573 69.8646 18.8236L69.5496 18.4102C69.6421 18.3414 78.8487 11.6211 89.1352 18.401L88.846 18.8328Z" fill="#1D1D1B"/>
<path d="M82.6953 13.1757C82.8149 12.9628 82.5058 12.5594 82.005 12.2746C81.5042 11.9898 81.0013 11.9315 80.8817 12.1444C80.7622 12.3572 81.0713 12.7607 81.5721 13.0454C82.0729 13.3302 82.5758 13.3886 82.6953 13.1757Z" fill="#1D1D1B"/>
<path d="M76.5789 13.0455C77.0797 12.7607 77.3888 12.3573 77.2693 12.1444C77.1497 11.9315 76.6468 11.9898 76.146 12.2746C75.6452 12.5594 75.3361 12.9628 75.4557 13.1757C75.5752 13.3886 76.0781 13.3303 76.5789 13.0455Z" fill="#1D1D1B"/>
<path d="M94.5646 14.6883C95.0262 14.6883 95.4004 13.7963 95.4004 12.6961C95.4004 11.5958 95.0262 10.7039 94.5646 10.7039C94.103 10.7039 93.7289 11.5958 93.7289 12.6961C93.7289 13.7963 94.103 14.6883 94.5646 14.6883Z" fill="#93C252"/>
<path d="M64.4493 14.6522C64.9109 14.6522 65.2851 13.7602 65.2851 12.6599C65.2851 11.5597 64.9109 10.6677 64.4493 10.6677C63.9877 10.6677 63.6136 11.5597 63.6136 12.6599C63.6136 13.7602 63.9877 14.6522 64.4493 14.6522Z" fill="#93C252"/>
<path d="M67.5432 18.1495C66.9524 18.7113 66.4433 19.3955 65.97 20.0545C65.4792 20.737 65.1176 21.4816 64.8476 22.2748C64.2952 23.8981 63.9602 25.6161 63.6952 27.3065C63.6411 27.6519 63.7836 28.0032 64.1518 28.103C64.4618 28.1877 64.9009 27.9982 64.9551 27.6511C65.2084 26.032 65.5367 24.402 66.035 22.8382C66.2616 22.1272 66.5674 21.4707 66.9941 20.8552C67.4282 20.2297 67.9131 19.5933 68.4664 19.0668C69.0747 18.4874 68.1498 17.5726 67.5432 18.1495Z" fill="#93C252"/>
<path d="M90.5492 19.0658C91.0891 19.5789 91.5607 20.1977 91.9874 20.8056C92.4298 21.4353 92.7481 22.1078 92.9806 22.8381C93.4789 24.4019 93.8072 26.0318 94.0605 27.6509C94.1147 27.9972 94.5521 28.1884 94.8638 28.1029C95.2362 28.0014 95.3745 27.6535 95.3204 27.3063C95.0554 25.616 94.7196 23.8988 94.168 22.2746C93.9055 21.5016 93.5547 20.7704 93.0806 20.103C92.5998 19.4263 92.0765 18.7245 91.4724 18.1502C90.8658 17.5725 89.9409 18.4872 90.5492 19.0658Z" fill="#93C252"/>
<path d="M67.324 19.5756C67.8823 18.5275 68.3881 17.4551 68.8489 16.3617C69.0555 15.8712 69.2513 15.3756 69.538 14.9245C69.8013 14.5087 70.1354 14.1473 70.4971 13.8136C71.2536 13.1143 72.1252 12.5282 72.9776 11.9505C73.9092 11.3191 74.8841 10.738 75.9615 10.3867C78.073 9.69916 80.3511 9.77714 82.4767 10.3616C83.5524 10.6575 84.5865 11.0734 85.5789 11.5773C86.5579 12.0754 87.5603 12.6204 88.3652 13.3725C89.1985 14.1515 89.8384 15.0922 90.4267 16.0598C91.12 17.2002 91.7757 18.3648 92.4465 19.5185C92.7448 19.2234 93.0423 18.9274 93.3406 18.6323C92.779 18.3313 92.3632 17.9003 92.0757 17.3352C91.8049 16.8027 91.0533 17.0006 90.8817 17.4903C90.6542 18.1384 90.9633 18.8805 91.5641 19.2075C91.8841 19.3819 92.2615 19.2754 92.4582 18.9752C92.6723 18.6465 92.7115 18.2801 92.6282 17.9045C92.4473 17.0912 91.1875 17.4349 91.3683 18.2491C91.3791 18.2961 91.4383 18.1552 91.3299 18.3212C91.6283 18.2441 91.9257 18.1661 92.224 18.0889C92.0915 18.0168 92.0999 17.9556 92.1424 17.8349C91.7441 17.8869 91.3466 17.938 90.9483 17.99C91.3283 18.7371 91.9399 19.3542 92.6815 19.7516C93.2498 20.056 93.9089 19.4389 93.5756 18.8654C92.9506 17.7896 92.3348 16.708 91.6966 15.6398C91.1241 14.6814 90.5042 13.7389 89.7443 12.9147C88.9377 12.0393 87.9486 11.392 86.9112 10.8169C85.8588 10.2324 84.7523 9.73103 83.6074 9.35036C81.3351 8.59405 78.8645 8.36012 76.5148 8.89087C74.165 9.42163 72.1311 10.8529 70.2679 12.3119C69.2705 13.0933 68.4556 14.0072 67.9473 15.1719C67.394 16.4388 66.8483 17.6991 66.1975 18.9216C65.8042 19.6586 66.9316 20.3134 67.324 19.5756Z" fill="#93C252"/>
<path d="M94.7813 10.8052C94.1846 10.0045 93.5864 9.19535 92.8781 8.486C92.1574 7.76491 91.3183 7.21822 90.4309 6.72101C89.5068 6.20367 88.5811 5.68465 87.617 5.24278C87.1304 5.01974 86.6354 4.81264 86.1296 4.63572C85.6622 4.47222 85.1289 4.2626 84.6281 4.39424C83.9699 4.5678 83.8365 5.17235 83.6116 5.71568C83.3974 6.23218 83.1074 6.71682 82.7791 7.16959C82.5733 7.45384 82.7291 7.89068 83.0133 8.05586C83.3424 8.2462 83.7007 8.10869 83.9074 7.8236C84.2482 7.35322 84.5323 6.85349 84.7614 6.32106C84.7864 6.26404 85.0356 5.54966 85.0739 5.55637C85.0414 5.58571 85.0081 5.61422 84.9756 5.64357C84.9889 5.6486 85.0031 5.65111 85.0172 5.65111C85.0506 5.70058 85.378 5.75089 85.4405 5.77102C86.5521 6.12485 87.5962 6.6489 88.6177 7.20313C89.6034 7.73724 90.66 8.24703 91.5091 8.98657C92.3373 9.70766 93.0006 10.5847 93.6522 11.4592C93.8613 11.7401 94.218 11.8818 94.5463 11.6915C94.8271 11.5288 94.9921 11.0878 94.7813 10.8052Z" fill="#93C252"/>
<path d="M65.2817 11.7409C66.1 9.93906 68.1364 9.03267 69.7563 8.07262C70.6645 7.53432 71.5653 6.92055 72.5368 6.50048C73.0143 6.29337 73.5301 6.17431 74.0425 6.08878C74.525 6.00829 75.0866 5.74249 75.0332 5.15975C75.0007 4.81179 74.7558 4.51245 74.38 4.51245C74.0517 4.51245 73.6942 4.81011 73.7267 5.15975C73.7292 5.14215 73.7317 5.1237 73.735 5.10609C73.7909 5.01051 73.8467 4.91576 73.9034 4.82017C73.965 4.75142 73.8934 4.80676 73.8175 4.82017C73.6767 4.84449 73.5351 4.86629 73.3942 4.89396C73.1534 4.94175 72.9143 4.99961 72.681 5.07255C72.186 5.22683 71.7094 5.44567 71.2545 5.69135C70.3171 6.19862 69.4105 6.76711 68.4947 7.31128C66.8549 8.28643 64.9784 9.27248 64.1552 11.0861C64.0102 11.4047 64.0627 11.7829 64.3893 11.9724C64.6668 12.1359 65.1359 12.0621 65.2817 11.7409Z" fill="#93C252"/>
<path d="M89.3493 10.7608C91.4952 10.7608 93.2347 9.03622 93.2347 6.90884C93.2347 4.78146 91.4952 3.05688 89.3493 3.05688C87.2034 3.05688 85.4639 4.78146 85.4639 6.90884C85.4639 9.03622 87.2034 10.7608 89.3493 10.7608Z" fill="#DDD443"/>
<path d="M89.3493 11.0207C87.0629 11.0207 85.2022 9.17603 85.2022 6.90963C85.2022 4.64323 87.062 2.79858 89.3493 2.79858C91.6357 2.79858 93.4964 4.64323 93.4964 6.90963C93.4964 9.17603 91.6357 11.0207 89.3493 11.0207ZM89.3493 3.31592C87.3512 3.31592 85.7255 4.92747 85.7255 6.90879C85.7255 8.89011 87.3512 10.5017 89.3493 10.5017C91.3474 10.5017 92.9739 8.89011 92.9739 6.90879C92.9739 4.92747 91.3483 3.31592 89.3493 3.31592Z" fill="#1D1D1B"/>
<path d="M89.3493 9.63298C90.8666 9.63298 92.0965 8.41331 92.0965 6.90878C92.0965 5.40424 90.8666 4.18457 89.3493 4.18457C87.8321 4.18457 86.6021 5.40424 86.6021 6.90878C86.6021 8.41331 87.8321 9.63298 89.3493 9.63298Z" fill="#1D1D1B"/>
<path d="M91.7166 6.90725C91.7291 7.30636 91.5216 7.66607 91.2308 7.72225C90.8325 7.79939 90.6192 7.57048 90.4609 7.24767C90.2825 6.88545 90.2017 6.51149 90.275 6.1107C90.3609 5.63948 90.8358 5.4483 91.2324 5.725C91.5483 5.94636 91.6982 6.31277 91.7166 6.90725Z" fill="white"/>
<path d="M69.7071 10.7608C71.853 10.7608 73.5926 9.03622 73.5926 6.90884C73.5926 4.78146 71.853 3.05688 69.7071 3.05688C67.5612 3.05688 65.8217 4.78146 65.8217 6.90884C65.8217 9.03622 67.5612 10.7608 69.7071 10.7608Z" fill="#DDD443"/>
<path d="M69.7071 11.0207C67.4207 11.0207 65.56 9.17603 65.56 6.90963C65.56 4.64323 67.4198 2.79858 69.7071 2.79858C71.9944 2.79858 73.8542 4.64323 73.8542 6.90963C73.8542 9.17603 71.9935 11.0207 69.7071 11.0207ZM69.7071 3.31592C67.709 3.31592 66.0825 4.92747 66.0825 6.90879C66.0825 8.89011 67.7081 10.5017 69.7071 10.5017C71.7052 10.5017 73.3317 8.89011 73.3317 6.90879C73.3317 4.92747 71.7061 3.31592 69.7071 3.31592Z" fill="#1D1D1B"/>
<path d="M69.7071 9.63298C71.2244 9.63298 72.4543 8.41331 72.4543 6.90878C72.4543 5.40424 71.2244 4.18457 69.7071 4.18457C68.1899 4.18457 66.9599 5.40424 66.9599 6.90878C66.9599 8.41331 68.1899 9.63298 69.7071 9.63298Z" fill="#1D1D1B"/>
<path d="M67.5532 6.06115C67.5557 5.46583 68.1431 4.92921 68.7497 4.96778C69.0839 4.98874 69.258 5.23609 69.1205 5.53543C68.9114 5.98904 68.5331 6.31521 68.1423 6.59694C67.8498 6.80823 67.5515 6.52064 67.5532 6.06115Z" fill="#FDFDFD"/>
<path d="M12.9637 70.9062C12.0971 71.3086 10.3981 71.7446 8.36499 71.7446C3.29883 71.7446 0 68.4914 0 63.4278C0 58.5319 3.33216 54.7085 9.03159 54.7085C10.5314 54.7085 12.0646 55.0439 12.997 55.4799L12.2638 58.5655C11.5972 58.2636 10.6306 57.9282 9.16407 57.9282C6.03189 57.9282 4.16541 60.2424 4.19874 63.2266C4.19874 66.5796 6.36519 68.4914 9.16407 68.4914C10.5973 68.4914 11.5972 68.1895 12.3962 67.8541L12.9637 70.9062Z" fill="#F0EEAC"/>
<path d="M31.126 63.0924C31.126 69.0951 26.9273 71.7782 22.7944 71.7782C18.1957 71.7782 14.6627 68.592 14.6627 63.3607C14.6627 57.9953 18.1623 54.7085 23.061 54.7085C27.8939 54.7085 31.126 58.1295 31.126 63.0924ZM18.8956 63.2601C18.8956 66.4128 20.4288 68.7932 22.9277 68.7932C25.2608 68.7932 26.8931 66.479 26.8931 63.193C26.8931 60.6441 25.7599 57.727 22.961 57.727C20.0621 57.727 18.8956 60.5434 18.8956 63.2601Z" fill="#F0EEAC"/>
<path d="M34.4915 59.9399C34.4915 58.0617 34.4582 56.4853 34.3582 55.0775H37.8912L38.0578 57.4923H38.1578C38.9577 56.2179 40.4242 54.7086 43.1565 54.7086C45.2896 54.7086 46.9552 55.916 47.6552 57.7263H47.7218C48.2884 56.8207 48.955 56.1499 49.7216 55.6804C50.6215 55.0432 51.6548 54.7078 52.9871 54.7078C55.6869 54.7078 58.4191 56.5524 58.4191 61.7837V71.4085H54.4203V62.3882C54.4203 59.6715 53.4871 58.0625 51.5215 58.0625C50.1216 58.0625 49.0884 59.0687 48.6551 60.2425C48.5551 60.645 48.4551 61.1481 48.4551 61.6176V71.4094H44.4563V61.9522C44.4563 59.6715 43.5564 58.0625 41.6566 58.0625C40.1234 58.0625 39.0902 59.2699 38.7236 60.4102C38.5569 60.8127 38.4903 61.2822 38.4903 61.7518V71.4102H34.4915V59.9399Z" fill="#F0EEAC"/>
<path d="M62.7503 60.5099C62.7503 58.3634 62.6837 56.6194 62.617 55.0774H66.2158L66.4158 57.5928H66.4824C67.6823 55.7482 69.5821 54.7085 72.0477 54.7085C75.7798 54.7085 78.8795 57.9282 78.8795 63.0253C78.8795 68.9274 75.1807 71.7782 71.4811 71.7782C69.448 71.7782 67.7482 70.9062 66.9157 69.5981H66.8491V78.0491H62.7503V60.5099ZM66.8499 64.5681C66.8499 64.9706 66.8832 65.3395 66.9832 65.7085C67.3832 67.3854 68.8497 68.5928 70.582 68.5928C73.1818 68.5928 74.7141 66.4128 74.7141 63.1939C74.7141 60.3095 73.3143 57.9626 70.682 57.9626C68.9822 57.9626 67.4165 59.2036 67.0166 61.0147C66.9166 61.3501 66.8499 61.719 66.8499 62.0544V64.5681Z" fill="#F0EEAC"/>
<path d="M91.3766 71.4092L91.11 69.5981H91.01C90.0101 70.8726 88.3102 71.7782 86.2113 71.7782C82.945 71.7782 81.1126 69.3969 81.1126 66.9159C81.1126 62.7914 84.7448 60.712 90.7442 60.7455V60.4772C90.7442 59.404 90.3109 57.6264 87.4453 57.6264C85.8455 57.6264 84.1798 58.1295 83.0799 58.8338L82.28 56.1507C83.4799 55.4128 85.5789 54.7085 88.1453 54.7085C93.3439 54.7085 94.8438 58.028 94.8438 61.5832V67.4852C94.8438 68.9609 94.9104 70.4022 95.0771 71.4084H91.3766V71.4092ZM90.8433 63.4278C87.9444 63.3607 85.1781 63.998 85.1781 66.4798C85.1781 68.0897 86.2113 68.8276 87.5112 68.8276C89.1443 68.8276 90.3442 67.7543 90.7108 66.5805C90.8108 66.2786 90.8442 65.9432 90.8442 65.6749V63.4278H90.8433Z" fill="#F0EEAC"/>
<path d="M99.175 59.9397C99.175 58.0616 99.1417 56.4852 99.0417 55.0774H102.64L102.84 57.5258H102.94C103.64 56.2513 105.407 54.7085 108.106 54.7085C110.939 54.7085 113.871 56.5531 113.871 61.7173V71.4092H109.772V62.1869C109.772 59.8391 108.906 58.0624 106.673 58.0624C105.039 58.0624 103.906 59.2363 103.473 60.4772C103.34 60.8461 103.306 61.3492 103.306 61.8188V71.4101H99.1741V59.9397H99.175Z" fill="#F0EEAC"/>
<path d="M120.27 55.0776L123.202 63.8304C123.535 64.8366 123.868 66.0776 124.102 67.0167H124.202C124.468 66.0776 124.768 64.8702 125.068 63.7969L127.601 55.0776H132L127.935 66.2109C125.701 72.3141 124.202 75.0308 122.269 76.7069C120.669 78.1491 119.004 78.6857 117.971 78.8199L117.037 75.3318C117.737 75.1641 118.604 74.7952 119.437 74.1915C120.204 73.6884 121.104 72.7158 121.67 71.609C121.837 71.3071 121.937 71.0724 121.937 70.8711C121.937 70.7034 121.904 70.4687 121.704 70.0662L115.772 55.0759H120.27V55.0776Z" fill="#F0EEAC"/>
<path d="M65.1234 30.4104C65.8667 30.9479 66.7049 31.3076 67.5873 31.5575C68.4514 31.8023 69.4197 32.1134 70.3254 31.9801C71.2545 31.8434 71.9177 31.1978 72.2235 30.3408C72.5218 29.504 72.481 28.5138 71.8002 27.869C71.1995 27.2997 70.3229 27.044 69.583 26.7052C68.7997 26.3472 68.0373 25.9497 67.3549 25.4232C66.7466 24.9545 65.6184 24.0917 64.8818 24.822C64.5235 25.1767 64.5668 25.7301 64.9351 26.0546C65.2959 26.3715 65.7359 26.6331 66.1366 26.8964C66.9932 27.4598 67.8831 27.973 68.8005 28.4333C69.2238 28.6463 69.6671 28.8416 70.0346 29.1452C70.0829 29.1854 70.1279 29.2349 70.1779 29.2726C70.2496 29.3581 70.2579 29.3556 70.2021 29.2668C70.1871 29.2332 70.1754 29.2458 70.1679 29.3045C70.1221 29.3254 70.0604 29.489 70.0238 29.5359C69.9763 29.5921 69.9263 29.6457 69.8738 29.6961C69.7671 29.7866 69.7646 29.7942 69.8671 29.7187C69.9771 29.748 70.0871 29.7774 70.1971 29.8067C70.2954 29.857 70.2137 29.9015 70.2529 29.8176C70.2529 29.8168 70.2262 29.6038 70.2487 29.6399C70.2479 29.6382 70.2654 29.6114 70.2662 29.6122C70.2671 29.6089 70.2687 29.6063 70.2712 29.6055C70.3162 29.5812 70.2704 29.5963 70.1346 29.6516C70.0388 29.5963 69.9421 29.5409 69.8463 29.4848C69.8113 29.4504 69.8513 29.525 69.8513 29.525C69.8171 29.5929 69.8346 29.6416 69.7796 29.6935C69.7221 29.748 69.6163 29.7573 69.5171 29.764C69.4846 29.7665 69.2563 29.7497 69.248 29.7615C69.3322 29.8487 69.4163 29.9359 69.5005 30.0231C69.4996 29.9937 69.4996 29.9644 69.4988 29.9342C69.588 29.5527 69.6005 29.1276 69.6513 28.7377C69.6963 28.3905 69.668 28.0392 69.3997 27.781C68.7672 27.1722 67.8665 27.8447 67.5473 28.4476C67.3699 28.783 67.2782 29.1628 67.2915 29.5418C67.299 29.7506 67.334 29.9694 67.394 30.1698C67.4315 30.2956 67.4898 30.3937 67.474 30.5102C67.504 30.4012 67.5332 30.2922 67.5632 30.1832C67.5907 30.1547 67.6182 30.127 67.6457 30.0985C67.7557 30.0692 67.8656 30.0398 67.9756 30.0105C68.1756 30.1681 68.2414 30.1991 68.1739 30.1027C68.1498 30.0382 68.1306 29.9719 68.1148 29.9048C68.1006 29.8269 68.0948 29.748 68.099 29.6667C68.1031 29.603 68.1289 29.3036 68.2098 29.2785C68.3456 29.2366 68.4664 29.6466 68.4406 29.7346C68.4964 29.639 68.5522 29.5443 68.6089 29.4487C68.4856 29.5954 68.0023 29.3925 67.8556 29.3397C67.5148 29.2164 67.1882 29.0538 66.8741 28.8743C66.7108 28.7813 66.5399 28.6857 66.3891 28.5733C66.3625 28.554 66.2416 28.4283 66.2783 28.4937C66.3008 28.5339 66.2691 28.43 66.2708 28.4082C66.28 28.3117 66.3241 28.2514 66.3466 28.1633C66.3258 28.243 66.2116 28.1625 66.32 28.2019C66.3766 28.2229 66.5141 28.1985 66.5724 28.2027C66.8607 28.2254 67.1432 28.3327 67.3799 28.4962C67.4215 28.5247 67.6432 28.7444 67.6357 28.7461C67.6348 28.7461 67.649 28.6698 67.654 28.6119C67.669 28.4417 67.7648 28.6329 67.664 28.5859C67.5907 28.5524 67.4765 28.5373 67.3849 28.4811C67.2507 28.3989 67.134 28.2992 67.0232 28.1893C66.9157 28.0837 66.8224 27.9772 66.7541 27.8422C66.7283 27.7919 66.7166 27.7298 66.6891 27.682C66.6366 27.5881 66.7299 27.4699 66.6183 27.6955C66.5399 27.7726 66.4616 27.8506 66.3841 27.9277C66.295 27.9898 66.2291 27.9135 66.345 27.9755C66.3816 27.9948 66.4424 28.0099 66.4808 28.0275C66.6283 28.0929 66.7866 28.1818 66.9157 28.2782C67.1007 28.4165 67.2474 28.5842 67.2465 28.8215C67.464 28.606 67.6823 28.3897 67.8998 28.1742C66.8557 28.2103 66.2508 27.2569 65.9542 26.3858C65.6342 26.6297 65.3142 26.8737 64.9943 27.1169C65.1892 27.2158 65.2876 27.3584 65.3617 27.5621C65.4117 27.6988 65.4401 27.8447 65.4692 27.9872C65.4859 28.0694 65.4825 28.2321 65.5234 28.3059C65.5284 28.3327 65.5284 28.3595 65.5225 28.3864C65.7375 28.3629 65.8183 28.3059 65.7659 28.2161C65.745 28.165 65.6284 28.103 65.5884 28.0593C65.4392 27.8942 65.3676 27.7114 65.3226 27.4959C65.0551 27.7617 64.7868 28.0266 64.5193 28.2924C64.7418 28.3545 64.9276 28.466 65.0776 28.6429C65.1384 28.715 65.1942 28.8006 65.2342 28.8861C65.2551 28.9314 65.2709 28.9783 65.2851 29.027C65.2942 29.0555 65.3017 29.0848 65.3076 29.115C65.3234 29.2055 65.3309 29.1737 65.3284 29.0186C65.4067 28.9414 65.485 28.8634 65.5625 28.7863C65.2892 28.9708 64.9101 28.9045 64.6185 28.8039C64.561 29.2282 64.5026 29.6516 64.4452 30.0759C64.656 30.0809 64.8676 30.0859 65.0784 30.091C65.1901 30.0935 65.4292 30.0625 65.5009 30.117C65.4226 30.0398 65.3442 29.9619 65.2667 29.8847C65.2567 29.847 65.2459 29.8092 65.2359 29.7707C65.2659 29.6617 65.2951 29.5527 65.3251 29.4437C65.3109 29.4646 65.2976 29.4848 65.2834 29.5057C65.3617 29.4286 65.4401 29.3506 65.5175 29.2735C65.6675 29.1779 65.6467 29.3179 65.5209 29.2215C65.4409 29.1603 65.3542 29.1267 65.2784 29.058C65.1276 28.9221 65.0176 28.7352 64.9459 28.5482C64.7393 28.0082 64.8018 27.3944 64.8093 26.8301C64.8126 26.582 64.776 26.2944 64.8393 26.0529C64.8859 25.876 65.0359 25.5775 65.2059 25.4836C65.0893 25.5481 65.1292 25.5146 65.2467 25.5666C65.3359 25.606 65.4267 25.6596 65.5109 25.7091C65.7159 25.8282 65.7867 25.9045 65.8233 26.1384C65.92 26.7522 65.8575 27.3659 65.8708 27.9805C65.8733 28.1038 65.8333 28.0811 65.8692 28.0543C65.8167 28.0946 65.7184 28.1071 65.6542 28.1164C65.4184 28.1524 65.1517 28.1331 64.9193 28.0904C64.586 28.0292 64.2685 27.9269 63.926 28.0048C63.6402 28.0703 63.3928 28.2623 63.2419 28.5088C62.852 29.1485 63.2561 29.8503 63.8952 30.0893C64.2252 30.2126 64.611 29.9526 64.6985 29.6374C64.7993 29.2743 64.5735 28.9641 64.2418 28.8408C64.3477 28.8802 64.4327 29.0546 64.3693 29.1636C64.2235 29.4126 64.1377 29.2072 64.2993 29.2793C64.4235 29.3347 64.6068 29.3481 64.7401 29.3682C65.1068 29.4244 65.4667 29.4395 65.835 29.3908C66.5841 29.2911 67.0866 28.8316 67.1674 28.0761C67.2399 27.4037 67.199 26.6968 67.1157 26.0277C67.0207 25.2706 66.6208 24.8161 65.9508 24.4724C65.2642 24.1202 64.5851 24.1613 64.0844 24.7876C63.8844 25.0383 63.7102 25.3041 63.6086 25.6102C63.4919 25.964 63.5061 26.3396 63.5027 26.7077C63.4919 28.0023 63.4828 29.5577 64.7793 30.2981C65.3901 30.6469 66.5674 30.6737 66.5508 29.6969C66.5333 28.6421 65.1568 28.7989 64.4435 28.7821C63.6769 28.7637 63.5977 29.8227 64.2702 30.0541C65.2026 30.3761 66.8199 30.1656 66.5833 28.8609C66.4241 27.9864 65.7142 27.2821 64.8651 27.0448C64.3618 26.9039 63.9619 27.3701 64.0619 27.8413C64.1718 28.3629 64.4626 28.8358 64.8818 29.1678C65.3926 29.5728 66.145 29.686 66.5858 29.1108C66.9682 28.6119 66.8166 27.9353 66.6658 27.376C66.5133 26.8083 66.1941 26.2734 65.6517 25.9992C65.1784 25.7602 64.4985 26.1619 64.6918 26.7304C65.1734 28.1432 66.2408 29.5275 67.8973 29.4705C68.2514 29.4579 68.5497 29.1837 68.5506 28.8232C68.5539 27.7692 67.5423 26.8754 66.5374 26.6952C65.9133 26.5836 65.3542 26.8947 65.3626 27.568C65.3692 28.1113 65.6325 28.5977 65.9892 28.9951C66.6474 29.7296 68.0706 30.3953 68.7539 29.3003C69.423 28.2279 68.1181 27.2502 67.1899 27.0037C66.7224 26.8796 66.0917 26.8159 65.6542 27.0666C65.1992 27.3274 64.9459 27.9503 64.9593 28.4551C64.9909 29.6063 66.4233 30.1631 67.3424 30.527C67.8331 30.7215 68.3864 30.864 68.9122 30.7223C69.1913 30.6477 69.4788 30.4867 69.6288 30.2327C69.7821 29.9728 69.7505 29.6558 69.7013 29.3724C69.6155 28.8752 69.3263 28.3964 68.8689 28.1549C68.3773 27.8958 67.7532 27.9353 67.3357 28.3142C66.9049 28.705 66.7408 29.3623 66.7991 29.9224C66.8641 30.5463 67.1874 31.3135 67.9323 31.3059C68.6997 31.2984 68.8755 30.5261 68.6847 29.9333C68.6081 29.6944 68.5472 29.4546 68.6281 29.2081C68.6564 29.1217 68.6931 29.0412 68.7489 28.9666C68.7697 28.9389 68.8039 28.9179 68.8214 28.8886C68.9114 28.7427 69.0122 28.928 68.7314 28.8383C68.6356 28.783 68.5389 28.7276 68.4431 28.6714C68.1698 28.4425 68.4189 28.3897 68.3639 28.5331C68.3339 28.6102 68.3414 28.7159 68.3306 28.798C68.3048 28.9892 68.2789 29.1804 68.2539 29.3724C68.2098 29.7019 68.1431 30.0306 68.2464 30.3568C68.4881 31.1189 69.4821 31.1776 70.1296 30.9538C70.7279 30.7475 71.1453 30.1664 71.1461 29.5342C71.147 28.757 70.487 28.061 69.6863 28.4459C69.0264 28.7628 68.8214 29.5401 68.9972 30.2067C69.0764 30.506 69.2497 30.776 69.5313 30.9202C69.9679 31.1441 70.4162 30.9429 70.7512 30.6444C71.2695 30.1807 71.7319 29.3607 71.357 28.684C71.0445 28.1197 70.3304 27.7483 69.7754 27.4699C69.0672 27.1152 68.3698 26.7471 67.6907 26.3396C67.3699 26.1468 67.0524 25.9464 66.7399 25.7401C66.5758 25.6311 66.4125 25.5213 66.25 25.4089C66.1691 25.3528 66.0883 25.2966 66.0075 25.2396C65.975 25.2169 65.9433 25.1934 65.9108 25.1708C65.7817 25.0593 65.7784 25.0828 65.9008 25.2412C65.9008 25.3561 65.9008 25.471 65.9008 25.5858C65.9008 25.5909 65.9 25.5967 65.9 25.6018C65.8217 25.6789 65.7434 25.7569 65.6659 25.834C65.6142 25.8709 65.485 25.7879 65.5884 25.8533C65.6259 25.8768 65.6959 25.881 65.7375 25.8978C65.8133 25.9271 65.885 25.9682 65.955 26.0093C66.135 26.1141 66.3008 26.2399 66.4658 26.3665C66.8549 26.6666 67.249 26.9492 67.6765 27.194C68.5064 27.6686 69.398 28.0116 70.2621 28.4165C70.5545 28.5532 70.9195 28.7125 71.0453 29.0303C71.1853 29.3816 71.0403 29.8788 70.8645 30.1924C70.4262 30.9756 69.4347 30.6838 68.7339 30.5127C67.6665 30.252 66.6733 29.9367 65.7759 29.2877C65.4909 29.0815 65.0476 29.2399 64.8818 29.52C64.696 29.852 64.8376 30.2042 65.1234 30.4104Z" fill="#93C252"/>
<path d="M65.3017 23.8635C65.0893 24.0949 65.2101 24.2836 65.3934 24.4463C65.9625 24.9519 66.5774 25.3979 67.2232 25.8012C68.1373 26.3722 69.1097 26.8275 70.1104 27.2283C70.4329 27.3575 70.752 27.5 71.057 27.6643C72.0311 28.1892 72.4177 29.0487 72.151 30.1118C71.9961 30.7281 71.6978 31.2429 71.0911 31.5532C70.7079 31.7494 70.3146 31.7485 69.9154 31.72C68.7106 31.6337 67.6173 31.1616 66.5316 30.6937C64.4977 29.8167 62.7387 28.5489 61.248 26.9173C61.1172 26.7739 60.9747 26.6372 60.8222 26.5173C60.6447 26.3798 60.4631 26.3664 60.3181 26.5777C60.1723 26.8242 60.3347 26.9902 60.4856 27.1428C61.418 28.0928 62.3712 29.0126 63.4919 29.7572C64.4893 30.4204 65.5267 30.9948 66.6349 31.4484C67.1216 31.6068 67.5915 31.8106 68.0723 31.9833C68.9022 32.2827 69.7554 32.4235 70.6362 32.3699C71.1886 32.3363 71.6294 32.0781 71.9719 31.6504C72.7851 30.6342 73.0518 29.5299 72.4977 28.3066C72.1994 27.6484 71.6311 27.277 70.997 26.9843C70.2396 26.6347 69.4538 26.3513 68.7081 25.9748C67.6948 25.4642 66.7624 24.8387 65.8825 24.1302C65.7109 23.9935 65.5242 23.8929 65.3017 23.8635Z" fill="#010101"/>
<path d="M93.1573 29.2918C92.379 29.8544 91.5299 30.1781 90.6033 30.4162C89.8984 30.5973 88.8169 31.0291 88.2203 30.4019C87.9736 30.1429 87.8503 29.7303 87.842 29.3798C87.832 28.9824 88.0311 28.7652 88.3644 28.5774C89.1752 28.1205 90.0776 27.8261 90.9025 27.3927C91.3858 27.1386 91.8432 26.8502 92.2765 26.519C92.464 26.3756 92.6473 26.2263 92.8456 26.0972C92.9456 26.0318 93.0506 25.9639 93.1614 25.9169C93.1889 25.9052 93.2164 25.8968 93.2456 25.8876C93.2781 25.8759 93.3114 25.8666 93.3456 25.8591C93.4381 25.8415 93.4122 25.8348 93.2681 25.8398C93.1897 25.7627 93.1114 25.6847 93.0339 25.6075C93.0339 25.6025 93.0331 25.5966 93.0331 25.5916C93.0331 25.4767 93.0331 25.3619 93.0331 25.247C93.0781 25.0256 93.1689 25.1103 93.0231 25.1766C92.9389 25.2151 92.8581 25.294 92.7815 25.3476C92.6365 25.4491 92.4898 25.5497 92.3423 25.6486C92.0474 25.8465 91.7491 26.0377 91.4458 26.223C90.8575 26.5844 90.255 26.9214 89.6393 27.2359C89.0285 27.5478 88.4152 27.8345 87.9028 28.299C87.292 28.8533 87.3595 29.6054 87.822 30.2359C88.0294 30.5185 88.2852 30.8052 88.6169 30.9419C89.036 31.1138 89.5185 30.9864 89.7684 30.6007C90.1242 30.0506 90.0809 29.2054 89.6234 28.7258C89.061 28.1347 88.1411 28.2689 87.8661 29.0579C87.6678 29.6272 87.8661 30.3047 88.3261 30.6912C88.8944 31.1691 90.1351 31.2907 90.5833 30.5889C90.7833 30.2762 90.7533 29.9173 90.7067 29.5693C90.6783 29.3564 90.65 29.1442 90.6208 28.9313C90.6067 28.8256 90.5875 28.7191 90.5784 28.6126C90.5759 28.5883 90.5733 28.5632 90.5708 28.5389C90.5767 28.3888 90.55 28.4349 90.4917 28.6772C90.3959 28.7325 90.2992 28.7879 90.2034 28.8441C90.0759 28.8843 89.9859 28.7208 90.0992 28.8742C90.1142 28.8952 90.1267 28.9069 90.1459 28.9279C90.2051 28.9908 90.2542 29.0663 90.2875 29.1459C90.3617 29.3245 90.3592 29.5316 90.3175 29.7161C90.2001 30.2326 89.9717 30.8463 90.5675 31.1909C91.1708 31.5398 91.7624 31.1012 91.9874 30.5445C92.1832 30.0598 92.2049 29.4872 92.024 28.9933C91.8282 28.4609 91.4158 28.0291 90.8183 27.993C90.2934 27.9611 89.8201 28.2345 89.5243 28.6512C89.2485 29.0386 89.0668 29.7102 89.2726 30.1596C89.5326 30.7273 90.2592 30.8312 90.8142 30.7516C91.3583 30.6736 91.8865 30.4296 92.3732 30.1848C92.8398 29.95 93.3939 29.6708 93.713 29.2474C94.0647 28.7803 94.0213 28.1708 93.7872 27.6635C93.5422 27.1336 93.0914 26.9105 92.519 26.908C91.5866 26.903 90.2867 27.4337 90.0409 28.4265C89.8942 29.0193 90.245 29.5819 90.8025 29.794C91.3366 29.9978 91.9007 29.8293 92.3523 29.5115C92.8381 29.1694 93.2522 28.7283 93.4631 28.1691C93.6814 27.5914 93.598 26.7965 92.8639 26.6892C92.2823 26.6045 91.6949 26.9164 91.2433 27.2535C90.7317 27.635 90.3834 28.1775 90.3859 28.8273C90.3867 29.1862 90.6842 29.4629 91.0391 29.4746C92.6956 29.5316 93.7639 28.1473 94.2446 26.7345C94.4388 26.1651 93.7597 25.7627 93.2847 26.0033C92.7598 26.2691 92.444 26.7797 92.2848 27.3273C92.1199 27.8941 91.9624 28.6068 92.3515 29.1149C92.7656 29.6557 93.4856 29.5962 93.9897 29.2222C94.443 28.886 94.7596 28.3955 94.8754 27.8454C94.9746 27.3742 94.5746 26.908 94.0722 27.0489C93.2231 27.2862 92.5132 27.9913 92.354 28.865C92.1174 30.1697 93.7339 30.3801 94.6671 30.0582C95.3337 29.8284 95.267 28.7678 94.4938 28.7862C93.823 28.8021 92.8023 28.6395 92.4648 29.3782C92.2998 29.7404 92.424 30.1797 92.7623 30.3969C93.0581 30.5881 93.4231 30.5789 93.7514 30.4791C95.1379 30.0548 95.4604 28.5196 95.4445 27.2669C95.4354 26.5542 95.5029 25.8222 95.1304 25.1808C94.7854 24.5863 94.2155 24.0765 93.4756 24.2735C92.8706 24.4345 92.1948 24.8672 91.9549 25.4566C91.6916 26.1048 91.7291 26.9516 91.7466 27.6408C91.7557 28.0056 91.7641 28.3946 91.9532 28.7191C92.1415 29.0419 92.4682 29.2532 92.8273 29.348C93.1931 29.4436 93.5947 29.4461 93.9672 29.4042C94.1572 29.3824 94.3438 29.3505 94.5304 29.3086C94.5663 29.3002 94.7288 29.2826 94.7329 29.2725C94.6779 29.2381 94.6221 29.2029 94.5671 29.1685C94.5096 29.0084 94.5521 28.9011 94.6946 28.8457C94.3646 28.969 94.1388 29.2834 94.238 29.6423C94.3246 29.9567 94.7096 30.2183 95.0412 30.0942C95.6878 29.8536 96.0753 29.1576 95.6945 28.5137C95.5478 28.2655 95.2937 28.0743 95.0104 28.0098C94.6679 27.9318 94.3513 28.0341 94.0172 28.0953C93.7847 28.1381 93.5172 28.1573 93.2822 28.1213C93.2181 28.1112 93.1198 28.0987 93.0673 28.0592C93.1023 28.0861 93.0631 28.1087 93.0656 27.9855C93.0789 27.3709 93.0164 26.7571 93.1131 26.1433C93.1506 25.9086 93.2214 25.8339 93.4256 25.714C93.5105 25.6637 93.5989 25.6109 93.6897 25.5715C93.808 25.5203 93.8472 25.5522 93.7305 25.4885C93.9005 25.5824 94.0505 25.8809 94.0972 26.0578C94.1613 26.3018 94.1238 26.5852 94.1272 26.8351C94.1347 27.4027 94.1938 28.0098 93.9905 28.5531C93.9205 28.7401 93.808 28.9279 93.658 29.0629C93.5814 29.1317 93.4956 29.1652 93.4156 29.2264C93.2897 29.3228 93.2697 29.1828 93.4189 29.2784C93.4972 29.3555 93.5755 29.4335 93.653 29.5106C93.6389 29.4897 93.6255 29.4696 93.6114 29.4486C93.6414 29.5576 93.6705 29.6666 93.7005 29.7756C93.6905 29.8133 93.6797 29.8511 93.6697 29.8896C93.5914 29.9668 93.513 30.0448 93.4356 30.1219C93.5039 30.0699 93.7597 30.0984 93.858 30.0959C94.0688 30.0909 94.2805 30.0858 94.4913 30.0808C94.4338 29.6565 94.3755 29.2331 94.318 28.8088C94.0255 28.9095 93.6472 28.9757 93.3739 28.7912C93.4522 28.8684 93.5306 28.9463 93.608 29.0235C93.6597 29.0931 93.578 29.2323 93.6389 29.0755C93.6622 29.0168 93.6714 28.9539 93.698 28.8969C93.7389 28.8097 93.7964 28.7208 93.8589 28.6479C94.0088 28.4709 94.1946 28.3594 94.4171 28.2974C94.1497 28.0316 93.8813 27.7666 93.6139 27.5008C93.568 27.7163 93.4972 27.8991 93.3481 28.0643C93.3089 28.1079 93.1923 28.1699 93.1706 28.2211C93.1181 28.3108 93.1989 28.367 93.4139 28.3913C93.4089 28.3644 93.4081 28.3376 93.4131 28.3108C93.4547 28.237 93.4506 28.0743 93.4672 27.9922C93.4964 27.8496 93.5256 27.7046 93.5747 27.5671C93.6489 27.3633 93.7472 27.2199 93.9422 27.1218C93.6222 26.8778 93.3022 26.6338 92.9823 26.3907C92.6856 27.2619 92.0807 28.216 91.0366 28.1791C91.2541 28.3946 91.4724 28.611 91.6899 28.8264C91.6891 28.59 91.8366 28.4206 92.0207 28.2831C92.139 28.1942 92.2757 28.1205 92.409 28.0551C92.4532 28.0333 92.4957 28.0106 92.5423 27.9947C92.729 27.9318 92.659 28.0056 92.5531 27.9326C92.4748 27.8555 92.3965 27.7775 92.319 27.7004C92.2132 27.4857 92.279 27.645 92.2082 27.8035C92.1482 27.9377 92.0532 28.0534 91.9515 28.1573C91.7874 28.3259 91.5508 28.5472 91.3174 28.6017C91.2 28.6294 91.2774 28.5464 91.2558 28.5908C91.2458 28.611 91.3341 28.7501 91.3024 28.7493C91.2958 28.7493 91.5249 28.5221 91.5583 28.4994C91.7949 28.3351 92.0782 28.2295 92.3657 28.206C92.4323 28.2009 92.5015 28.2102 92.5682 28.2026C92.7706 28.18 92.6315 28.2496 92.5923 28.1666C92.629 28.2437 92.6556 28.3259 92.6681 28.4114C92.6848 28.5254 92.6606 28.4944 92.5498 28.5766C92.4132 28.678 92.2615 28.7636 92.114 28.8491C91.8016 29.0302 91.4758 29.1954 91.1366 29.3228C90.9783 29.3824 90.4625 29.6096 90.33 29.452C90.3859 29.5475 90.4417 29.6423 90.4984 29.7379C90.4725 29.649 90.5942 29.2398 90.7292 29.2817C90.8125 29.3077 90.8358 29.5978 90.84 29.67C90.845 29.7496 90.8392 29.8301 90.8242 29.9081C90.8092 29.9752 90.7892 30.0414 90.765 30.106C90.6975 30.2024 90.7633 30.1722 90.9633 30.0137C91.0733 30.0431 91.1833 30.0724 91.2933 30.1018C91.3208 30.1303 91.3483 30.1579 91.3758 30.1865C91.4058 30.2955 91.4349 30.4045 91.4649 30.5135C91.4499 30.3969 91.5066 30.3022 91.5449 30.173C91.5999 29.9886 91.6291 29.794 91.6432 29.6029C91.6716 29.2222 91.5849 28.8332 91.4141 28.4927C91.1041 27.8739 90.1876 27.1604 89.5393 27.7842C88.991 28.3116 89.4018 29.249 89.4368 29.893C89.4401 29.9223 89.441 29.9525 89.4393 29.9819C89.4268 30.1429 89.511 30.0707 89.6918 29.7647C89.6484 29.7437 89.5285 29.7697 89.4801 29.7689C89.3993 29.7672 89.241 29.7605 89.1885 29.7245C89.101 29.6658 89.1302 29.6062 89.0893 29.5274C89.0927 29.5333 89.1285 29.4536 89.0943 29.4872C88.9985 29.5425 88.9019 29.5978 88.806 29.654C88.7735 29.6674 88.6894 29.5928 88.6727 29.6121C88.6685 29.6171 88.7094 29.623 88.6919 29.6423C88.6794 29.6565 88.6927 29.7463 88.6977 29.7706C88.7319 29.9232 88.6069 29.8779 88.7427 29.8091C88.8527 29.7798 88.9627 29.7504 89.0727 29.7211C89.0977 29.7387 89.1218 29.7555 89.1468 29.7731C89.091 29.7253 89.0385 29.6741 88.9885 29.6205C88.9235 29.5492 88.8744 29.4847 88.826 29.4016C88.8619 29.4629 88.7085 29.1996 88.7377 29.2683C88.7252 29.291 88.7135 29.3136 88.701 29.3371C88.7302 29.3052 88.761 29.2742 88.7935 29.2457C89.106 28.9539 89.491 28.7577 89.8709 28.569C90.6858 28.1641 91.4824 27.7297 92.2548 27.2493C92.6398 27.0095 93.0189 26.7604 93.3906 26.5014C93.7797 26.2305 94.3138 25.9597 94.3138 25.4206C94.3138 24.9024 93.8222 24.5351 93.3256 24.5586C92.8656 24.5812 92.4215 24.8093 92.054 25.0692C91.3391 25.574 90.6725 26.0704 89.8801 26.4594C89.1285 26.8284 88.2836 27.0866 87.5762 27.536C86.7546 28.0576 86.4263 28.8768 86.5804 29.8217C86.7154 30.6493 87.1787 31.4333 87.9669 31.7913C88.9593 32.2416 90.0667 31.9003 91.0641 31.6379C92.0482 31.3788 92.9881 31.0107 93.8147 30.4128C94.0997 30.2074 94.2396 29.8502 94.0488 29.5266C93.8863 29.2457 93.4439 29.0847 93.1573 29.2918Z" fill="#93C252"/>
<path d="M93.638 23.8635C93.8505 24.0949 93.7297 24.2836 93.5464 24.4463C92.9773 24.9519 92.3623 25.3979 91.7166 25.8012C90.8025 26.3722 89.8301 26.8275 88.8294 27.2283C88.5069 27.3575 88.1878 27.5 87.8828 27.6643C86.9087 28.1892 86.5221 29.0487 86.7887 30.1118C86.9437 30.7281 87.242 31.2429 87.8486 31.5532C88.2319 31.7494 88.6252 31.7485 89.0243 31.72C90.2292 31.6337 91.3224 31.1616 92.4082 30.6937C94.4421 29.8167 96.2011 28.5489 97.6918 26.9173C97.8226 26.7739 97.9651 26.6372 98.1176 26.5173C98.2951 26.3798 98.4767 26.3664 98.6217 26.5777C98.7675 26.8242 98.605 26.9902 98.4542 27.1428C97.5218 28.0928 96.5686 29.0126 95.4479 29.7572C94.4505 30.4204 93.4131 30.9948 92.3048 31.4484C91.8182 31.6068 91.3483 31.8106 90.8675 31.9833C90.0376 32.2827 89.1843 32.4235 88.3036 32.3699C87.7511 32.3363 87.3103 32.0781 86.9679 31.6504C86.1546 30.6342 85.888 29.5299 86.4421 28.3066C86.7404 27.6484 87.3087 27.277 87.9436 26.9843C88.701 26.6347 89.4868 26.3513 90.2326 25.9748C91.2458 25.4642 92.1782 24.8387 93.0581 24.1302C93.2289 23.9935 93.4164 23.8929 93.638 23.8635Z" fill="#010101"/>
</g>
<defs>
<clipPath id="clip0_109_2937">
<rect width="132" height="78" fill="white" transform="translate(0 0.819824)"/>
</clipPath>
</defs>
</svg>
