<svg width="158" height="93" viewBox="0 0 158 93" fill="none" xmlns="http://www.w3.org/2000/svg">
<g clip-path="url(#clip0_140_6165)">
<path d="M0 0.815765H24.677V10.4391H11.033V25.044H23.8352V34.2454H11.033V57.7139H0V0.815765Z" fill="#93C252"/>
<path d="M33.0151 1.65954C36.468 0.984726 40.8475 0.561844 45.0594 0.561844C51.1235 0.561844 56.5133 1.40661 60.2195 4.78266C63.6724 7.90679 64.6838 11.7047 64.6838 16.6014C64.6838 22.6797 61.7355 28.1671 55.9248 30.8684V31.0373C59.7996 32.5569 61.7365 36.1869 62.8306 42.2652C63.9258 48.5964 65.4418 55.6035 66.4521 57.7139H54.9135C54.2403 56.1103 52.9766 50.3689 52.1338 44.1227C51.1235 37.0317 49.3541 35.0052 45.6489 35.0052H44.0491V57.7139H33.0151V1.65954ZM44.0491 26.4796H45.986C50.7863 26.4796 53.566 22.5967 53.566 17.6151C53.566 12.8034 51.6291 9.34139 46.6602 9.17244C45.7336 9.17244 44.6385 9.25641 44.0491 9.51034V26.4796Z" fill="#93C252"/>
<path d="M158 56.1953C155.558 57.208 150.336 58.2217 146.209 58.2217C139.724 58.2217 134.839 56.3642 131.049 52.5653C126.164 47.8376 123.553 39.396 123.722 29.6027C123.975 8.9195 135.766 0.308914 147.81 0.308914C152.106 0.308914 155.306 1.15268 157.075 1.99744L155.138 11.5368C153.538 10.692 151.431 10.2701 148.653 10.2701C141.156 10.2701 135.177 15.4197 135.177 30.2775C135.177 43.9537 140.483 48.8503 145.621 48.8503C146.631 48.8503 147.39 48.7654 147.811 48.5964V34.8373H142.757V25.8038H158.001V56.1953H158Z" fill="#93C252"/>
<path d="M83.619 22.0108C88.0471 22.0108 91.6369 17.1527 91.6369 11.1599C91.6369 5.16706 88.0471 0.308914 83.619 0.308914C79.1908 0.308914 75.6011 5.16706 75.6011 11.1599C75.6011 17.1527 79.1908 22.0108 83.619 22.0108Z" fill="#93C252"/>
<path d="M83.6189 22.3188C79.025 22.3188 75.2888 17.3122 75.2888 11.1589C75.2878 5.0066 79.025 0 83.6189 0C88.2128 0 91.949 5.0066 91.949 11.1599C91.949 17.3132 88.2118 22.3188 83.6189 22.3188ZM83.6189 0.617827C79.3701 0.617827 75.9142 5.34651 75.9142 11.1599C75.9142 16.9733 79.3711 21.7019 83.6189 21.7019C87.8667 21.7019 91.3236 16.9723 91.3236 11.1599C91.3236 5.34751 87.8667 0.617827 83.6189 0.617827Z" fill="#1D1D1B"/>
<path d="M106.564 22.0108C110.992 22.0108 114.581 17.1527 114.581 11.1599C114.581 5.16706 110.992 0.308914 106.564 0.308914C102.135 0.308914 98.5457 5.16706 98.5457 11.1599C98.5457 17.1527 102.135 22.0108 106.564 22.0108Z" fill="#93C252"/>
<path d="M106.563 22.3188C101.97 22.3188 98.2334 17.3122 98.2334 11.1589C98.2334 5.0066 101.97 0 106.563 0C111.157 0 114.894 5.0066 114.894 11.1599C114.894 17.3132 111.156 22.3188 106.563 22.3188ZM106.563 0.617827C102.315 0.617827 98.8588 5.34651 98.8588 11.1599C98.8588 16.9733 102.316 21.7019 106.563 21.7019C110.812 21.7019 114.268 16.9723 114.268 11.1599C114.268 5.34751 110.812 0.617827 106.563 0.617827Z" fill="#1D1D1B"/>
<path d="M95.014 53.0032C105.735 53.0032 114.427 42.9405 114.427 30.5275C114.427 18.1145 105.735 8.05174 95.014 8.05174C84.2925 8.05174 75.6011 18.1145 75.6011 30.5275C75.6011 42.9405 84.2925 53.0032 95.014 53.0032Z" fill="#93C252"/>
<path d="M94.8303 52.4713C105.739 52.4713 114.581 44.6765 114.581 35.0612C114.581 25.4458 105.739 17.6511 94.8303 17.6511C83.9222 17.6511 75.0793 25.4458 75.0793 35.0612C75.0793 44.6765 83.9222 52.4713 94.8303 52.4713Z" fill="#F0EEAC"/>
<path d="M118.927 30.5155C118.927 48.2515 108.012 57.6559 94.6957 57.6559C80.916 57.6559 71.2395 47.1058 71.2395 31.5092C71.2395 15.1488 81.5354 4.44576 95.4707 4.44576C109.714 4.44576 118.927 15.2257 118.927 30.5155ZM78.4385 31.3572C78.4385 42.3662 84.4766 52.2284 95.0827 52.2284C105.766 52.2284 111.804 42.5191 111.804 30.8224C111.804 20.5782 106.385 9.87524 95.1595 9.87524C84.0129 9.87424 78.4385 20.0424 78.4385 31.3572Z" fill="#93C252"/>
<path d="M94.6957 57.8598C87.8497 57.8598 81.9542 55.3385 77.6465 50.5669C73.3199 45.7752 71.033 39.185 71.033 31.5102C71.033 15.4557 81.0815 4.24281 95.4696 4.24281C102.463 4.24281 108.42 6.7911 112.694 11.6138C116.906 16.3644 119.132 22.9006 119.132 30.5165C119.132 38.9541 116.65 45.9951 111.953 50.8778C107.624 55.3795 101.495 57.8598 94.6957 57.8598ZM95.4696 4.6497C81.3239 4.6497 71.4449 15.6946 71.4449 31.5092C71.4449 46.7839 81.0057 57.4519 94.6957 57.4519C109.29 57.4519 118.72 46.8789 118.72 30.5155C118.72 15.0448 109.377 4.6497 95.4696 4.6497ZM95.0826 52.4313C90.013 52.4313 85.7023 50.221 82.6165 46.0401C79.7889 42.2092 78.232 36.9946 78.232 31.3562C78.232 20.5622 83.4662 9.6703 95.1594 9.6703C100.404 9.6703 104.796 11.9936 107.861 16.3904C110.498 20.1724 112.01 25.4329 112.01 30.8214C112.01 36.7557 110.449 42.1562 107.617 46.0301C104.554 50.2179 100.22 52.4313 95.0826 52.4313ZM95.1604 10.0772C83.7515 10.0772 78.6449 20.7642 78.6449 31.3562C78.6449 41.6264 84.2911 52.0234 95.0826 52.0234C106.492 52.0234 111.598 41.3744 111.598 30.8204C111.598 20.8302 106.455 10.0772 95.1604 10.0772Z" fill="#1D1D1B"/>
<path d="M112.862 14.9868C111.997 14.1591 112.438 13.0494 113.24 12.5825C110.446 9.09847 106.709 6.58617 102.225 5.33852C102.535 6.4632 101.284 7.88081 99.9219 7.14501C98.6862 6.4782 96.86 6.55917 95.4926 6.56217C93.6774 6.56617 91.8671 6.73013 90.0499 6.72413C89.7647 6.72313 89.5253 6.65515 89.3208 6.54918C89.1303 6.4862 88.9638 6.38122 88.8242 6.23327C88.6716 6.0933 88.5638 5.92735 88.501 5.7364C88.4521 5.64343 88.4162 5.54746 88.3933 5.44749C83.8283 6.79511 79.9146 9.46436 76.9823 13.2083C77.873 13.5862 78.4714 14.8249 77.6197 15.7756C74.437 19.3276 73.5234 23.8923 73.1773 28.483C72.8442 32.8948 73.2591 37.1146 74.8659 41.2665C76.3749 45.1654 78.7995 48.8134 82.0061 51.5516C82.8589 52.2794 83.8024 53.0502 84.8087 53.79C84.8566 53.797 84.9045 53.803 84.9533 53.81C87.5635 54.1709 90.2115 54.3028 92.8446 54.3618C96.5688 54.4468 100.287 54.2538 103.994 54.4188C104.545 53.9929 105.154 53.633 105.721 53.3211C107.554 52.3134 109.311 51.6736 110.579 49.9291C111.754 48.3125 112.644 46.517 113.707 44.8215C114.205 43.7468 114.848 42.7301 115.377 41.6694C115.802 40.8166 116.194 39.9548 116.6 39.1011C117.22 36.0129 117.16 32.8858 117.2 29.7457C117.27 24.5751 116.888 18.8407 112.862 14.9868ZM95.0817 52.2284C84.4756 52.2284 78.4375 42.3662 78.4375 31.3572C78.4375 20.0424 84.0108 9.87525 95.1585 9.87525C106.383 9.87525 111.803 20.5783 111.803 30.8224C111.803 42.5191 105.765 52.2284 95.0817 52.2284Z" fill="#93C252"/>
<path d="M104.097 54.7327L103.981 54.7277C101.9 54.6347 99.7752 54.6557 97.7206 54.6757C96.1218 54.6907 94.4692 54.7077 92.8385 54.6707C90.6612 54.6217 87.7928 54.5138 84.9104 54.1159L84.687 54.0849L84.6231 54.0379C83.7385 53.3871 82.8159 52.6513 81.8025 51.7855C78.6758 49.1163 76.1764 45.5163 74.5746 41.3774C73.0636 37.4735 72.505 33.2477 72.8661 28.4601C73.1852 24.2242 73.9722 19.3806 77.3862 15.5707C77.7482 15.1668 77.7502 14.7579 77.6884 14.485C77.5906 14.0541 77.2655 13.6642 76.8596 13.4922L76.4885 13.3353L76.7359 13.0204C79.7021 9.23143 83.7025 6.51019 88.3044 5.15157L88.6266 5.05659L88.6994 5.3805C88.7163 5.45448 88.7413 5.52346 88.7782 5.59244L88.7991 5.64143C88.846 5.78339 88.9238 5.90336 89.0375 6.00733C89.1572 6.13329 89.2769 6.21027 89.4205 6.25726L89.4674 6.27725C89.6459 6.37023 89.8374 6.41621 90.0508 6.41721C90.9794 6.41721 91.9269 6.37722 92.8415 6.33624C93.7082 6.29725 94.6048 6.25726 95.4905 6.25526L95.8735 6.25326C97.211 6.24226 98.8756 6.23126 100.07 6.87508C100.696 7.21299 101.177 6.96006 101.408 6.78011C101.832 6.4502 102.047 5.87836 101.922 5.42049L101.777 4.89464L102.309 5.0426C106.756 6.28025 110.621 8.82154 113.483 12.3915L113.706 12.6695L113.396 12.8494C113.018 13.0694 112.755 13.4472 112.708 13.8361C112.667 14.174 112.795 14.495 113.077 14.7659C117.099 18.6158 117.585 24.2442 117.512 29.7517C117.506 30.1636 117.503 30.5735 117.499 30.9843C117.475 33.6726 117.45 36.4518 116.905 39.1631L116.881 39.234C116.752 39.507 116.623 39.7809 116.495 40.0548C116.226 40.6297 115.948 41.2245 115.656 41.8073C115.42 42.2802 115.16 42.7501 114.907 43.2039C114.591 43.7728 114.265 44.3606 113.99 44.9514L113.972 44.9854C113.58 45.6103 113.205 46.2621 112.842 46.8919C112.221 47.9686 111.58 49.0813 110.832 50.111C109.768 51.5746 108.388 52.2854 106.925 53.0382C106.579 53.2161 106.227 53.3981 105.872 53.593C105.385 53.861 104.754 54.2238 104.187 54.6637L104.097 54.7327ZM100.374 54.0409C101.546 54.0409 102.725 54.0559 103.894 54.1059C104.471 53.672 105.088 53.3171 105.569 53.0522C105.929 52.8542 106.286 52.6703 106.637 52.4893C108.031 51.7725 109.348 51.0947 110.325 49.7501C111.055 48.7464 111.688 47.6487 112.3 46.586C112.663 45.9562 113.038 45.3063 113.431 44.6765C113.714 44.0717 114.043 43.4789 114.361 42.907C114.61 42.4591 114.867 41.9953 115.098 41.5344C115.385 40.9586 115.662 40.3667 115.93 39.7959C116.053 39.532 116.176 39.269 116.301 39.0061C116.826 36.3628 116.851 33.6256 116.875 30.9783C116.879 30.5665 116.882 30.1546 116.888 29.7427C116.96 24.3732 116.494 18.8957 112.643 15.2078C112.221 14.8039 112.024 14.29 112.088 13.7622C112.144 13.2963 112.404 12.8444 112.788 12.5215C110.126 9.30341 106.611 6.97706 102.582 5.76439C102.559 6.32324 102.272 6.89308 101.796 7.26398C101.204 7.72485 100.447 7.78183 99.7712 7.41593C98.719 6.84809 97.1452 6.85809 95.8795 6.86909L95.4935 6.87109C94.6208 6.87309 93.7311 6.91307 92.8714 6.95206C91.9488 6.99305 90.9963 7.03804 90.0498 7.03304C89.7456 7.03204 89.4594 6.96506 89.1991 6.8341C88.9677 6.75412 88.7652 6.62215 88.5967 6.4432C88.4271 6.28925 88.2935 6.0873 88.2137 5.85637C88.2087 5.84737 88.2047 5.83837 88.2007 5.82938C83.9589 7.14201 80.2556 9.65331 77.456 13.1163C77.8759 13.4053 78.1871 13.8521 78.3008 14.351C78.4334 14.9348 78.2748 15.5137 77.8569 15.9805C74.5666 19.6525 73.8036 24.3732 73.4924 28.506C73.1384 33.2017 73.6839 37.3396 75.161 41.1575C76.7259 45.2024 79.1645 48.7154 82.2135 51.3187C83.1909 52.1534 84.0815 52.8662 84.9343 53.4951L84.9991 53.5041C87.8496 53.8979 90.6941 54.0049 92.8544 54.0529C94.4752 54.0899 96.1228 54.0739 97.7166 54.0579C98.5913 54.0499 99.48 54.0409 100.374 54.0409ZM95.0816 52.5373C89.977 52.5373 85.6365 50.3129 82.5296 46.1031C79.6891 42.2542 78.1252 37.0177 78.1252 31.3572C78.1252 20.5103 83.3924 9.56633 95.1594 9.56633C100.44 9.56633 104.863 11.9057 107.949 16.3314C110.637 20.1874 112.117 25.3329 112.117 30.8214C112.117 36.7777 110.549 42.2002 107.703 46.0911C104.618 50.3089 100.254 52.5373 95.0816 52.5373ZM95.1594 10.1842C83.8242 10.1842 78.7506 20.8182 78.7506 31.3572C78.7506 41.5754 84.3598 51.9195 95.0816 51.9195C106.417 51.9195 111.49 41.3235 111.49 30.8224C111.49 20.8822 106.38 10.1842 95.1594 10.1842Z" fill="#93C251"/>
<path d="M106.346 21.477C94.4094 13.6402 83.7315 21.387 83.6258 21.466L83.2488 20.9731C83.3595 20.8912 94.3795 12.8784 106.692 20.9621L106.346 21.477Z" fill="#1D1D1B"/>
<path d="M98.9838 14.7321C99.1269 14.4783 98.757 13.9973 98.1575 13.6577C97.5581 13.3181 96.9561 13.2486 96.813 13.5024C96.67 13.7562 97.0399 14.2372 97.6393 14.5768C98.2388 14.9163 98.8407 14.9859 98.9838 14.7321Z" fill="#1D1D1B"/>
<path d="M91.6627 14.5767C92.2621 14.2371 92.6321 13.7561 92.489 13.5023C92.3459 13.2485 91.7439 13.318 91.1445 13.6576C90.545 13.9971 90.1751 14.4782 90.3182 14.732C90.4613 14.9858 91.0632 14.9162 91.6627 14.5767Z" fill="#1D1D1B"/>
<path d="M113.191 16.5354C113.744 16.5354 114.191 15.4719 114.191 14.16C114.191 12.8482 113.744 11.7847 113.191 11.7847C112.639 11.7847 112.191 12.8482 112.191 14.16C112.191 15.4719 112.639 16.5354 113.191 16.5354Z" fill="#93C252"/>
<path d="M77.1439 16.4924C77.6964 16.4924 78.1443 15.4289 78.1443 14.1171C78.1443 12.8052 77.6964 11.7417 77.1439 11.7417C76.5914 11.7417 76.1436 12.8052 76.1436 14.1171C76.1436 15.4289 76.5914 16.4924 77.1439 16.4924Z" fill="#93C252"/>
<path d="M80.8472 20.6622C80.1401 21.332 79.5307 22.1478 78.9642 22.9336C78.3767 23.7474 77.9438 24.6351 77.6207 25.5809C76.9594 27.5163 76.5585 29.5647 76.2413 31.5802C76.1765 31.9921 76.3471 32.4109 76.7879 32.5299C77.1589 32.6309 77.6845 32.4049 77.7494 31.9911C78.0526 30.0606 78.4455 28.1171 79.042 26.2527C79.3132 25.4049 79.6793 24.6221 80.1899 23.8883C80.7096 23.1425 81.29 22.3837 81.9523 21.7559C82.6804 21.0651 81.5733 19.9744 80.8472 20.6622Z" fill="#93C252"/>
<path d="M108.385 21.7549C109.031 22.3667 109.595 23.1045 110.106 23.8293C110.636 24.5801 111.017 25.3819 111.295 26.2527C111.891 28.1171 112.284 30.0606 112.588 31.991C112.652 32.4039 113.176 32.6319 113.549 32.5299C113.995 32.4089 114.16 31.994 114.096 31.5802C113.778 29.5647 113.376 27.5173 112.716 25.5808C112.402 24.6591 111.982 23.7873 111.415 22.9916C110.839 22.1848 110.213 21.348 109.49 20.6632C108.764 19.9744 107.657 21.0651 108.385 21.7549Z" fill="#93C252"/>
<path d="M80.5848 22.3627C81.2531 21.1131 81.8585 19.8344 82.41 18.5308C82.6574 17.946 82.8918 17.3551 83.2349 16.8173C83.55 16.3214 83.95 15.8906 84.3828 15.4927C85.2884 14.6589 86.3317 13.9601 87.352 13.2713C88.4671 12.5185 89.634 11.8257 90.9236 11.4068C93.451 10.587 96.1778 10.68 98.7221 11.3768C100.01 11.7297 101.247 12.2256 102.435 12.8264C103.607 13.4202 104.807 14.0701 105.771 14.9668C106.768 15.8956 107.534 17.0172 108.238 18.1709C109.068 19.5305 109.853 20.9191 110.656 22.2948C111.013 21.9429 111.369 21.59 111.726 21.2381C111.054 20.8792 110.556 20.3653 110.212 19.6915C109.888 19.0567 108.988 19.2926 108.783 19.8764C108.51 20.6492 108.88 21.534 109.599 21.9239C109.982 22.1318 110.434 22.0048 110.67 21.6469C110.926 21.2551 110.973 20.8182 110.873 20.3703C110.657 19.4006 109.149 19.8105 109.365 20.7812C109.378 20.8372 109.449 20.6692 109.319 20.8672C109.676 20.7752 110.032 20.6822 110.389 20.5902C110.231 20.5043 110.241 20.4313 110.292 20.2873C109.815 20.3493 109.339 20.4103 108.862 20.4723C109.317 21.363 110.049 22.0988 110.937 22.5727C111.617 22.9356 112.406 22.1998 112.007 21.516C111.259 20.2333 110.522 18.9437 109.758 17.6701C109.073 16.5274 108.331 15.4037 107.421 14.421C106.456 13.3773 105.272 12.6055 104.03 11.9197C102.77 11.2229 101.446 10.625 100.076 10.1712C97.3557 9.2694 94.3985 8.99048 91.5859 9.62331C88.7733 10.2561 86.3387 11.9627 84.1086 13.7022C82.9147 14.6339 81.9393 15.7236 81.3309 17.1122C80.6686 18.6228 80.0153 20.1254 79.2364 21.583C78.7656 22.4617 80.1151 23.2425 80.5848 22.3627Z" fill="#93C252"/>
<path d="M113.45 11.9057C112.736 10.9509 112.02 9.9862 111.172 9.14044C110.31 8.28068 109.305 7.62886 108.243 7.03603C107.137 6.4192 106.029 5.80037 104.875 5.27352C104.292 5.00759 103.7 4.76066 103.095 4.54972C102.535 4.35477 101.897 4.10485 101.297 4.2618C100.509 4.46874 100.35 5.18954 100.08 5.83736C99.8242 6.45319 99.4771 7.03103 99.0841 7.57088C98.8378 7.90978 99.0243 8.43064 99.3644 8.62758C99.7583 8.85452 100.187 8.69056 100.435 8.35066C100.842 7.78981 101.183 7.19398 101.457 6.55916C101.487 6.49118 101.785 5.63942 101.831 5.64741C101.792 5.6824 101.752 5.71639 101.713 5.75138C101.729 5.75738 101.746 5.76038 101.763 5.76038C101.803 5.81937 102.195 5.87935 102.27 5.90334C103.6 6.32522 104.85 6.95005 106.073 7.61086C107.253 8.24769 108.517 8.85552 109.534 9.73727C110.525 10.597 111.319 11.6427 112.099 12.6854C112.349 13.0204 112.776 13.1893 113.169 12.9624C113.505 12.7684 113.703 12.2426 113.45 11.9057Z" fill="#93C252"/>
<path d="M78.1403 13.0214C79.1198 10.873 81.5573 9.79226 83.4962 8.64758C84.5834 8.00576 85.6615 7.27397 86.8245 6.77311C87.396 6.52618 88.0133 6.38422 88.6267 6.28225C89.2042 6.18627 89.8764 5.86936 89.8126 5.17455C89.7737 4.75967 89.4805 4.40277 89.0307 4.40277C88.6377 4.40277 88.2098 4.75767 88.2487 5.17455C88.2517 5.15356 88.2547 5.13157 88.2587 5.11057C88.3255 4.9966 88.3923 4.88364 88.4602 4.76967C88.534 4.68769 88.4482 4.75367 88.3574 4.76967C88.1889 4.79866 88.0193 4.82465 87.8508 4.85764C87.5625 4.91463 87.2763 4.98361 86.997 5.07058C86.4046 5.25453 85.8341 5.51546 85.2895 5.80838C84.1675 6.41321 83.0823 7.09102 81.9862 7.73984C80.0234 8.90251 77.7773 10.0782 76.7919 12.2406C76.6183 12.6205 76.6812 13.0713 77.0721 13.2973C77.4043 13.4922 77.9658 13.4043 78.1403 13.0214Z" fill="#93C252"/>
<path d="M106.948 11.8527C109.517 11.8527 111.599 9.79645 111.599 7.25997C111.599 4.72348 109.517 2.66725 106.948 2.66725C104.38 2.66725 102.298 4.72348 102.298 7.25997C102.298 9.79645 104.38 11.8527 106.948 11.8527Z" fill="#DDD443"/>
<path d="M106.948 12.1626C104.212 12.1626 101.984 9.96322 101.984 7.26097C101.984 4.55873 104.211 2.35934 106.948 2.35934C109.685 2.35934 111.912 4.55873 111.912 7.26097C111.912 9.96322 109.685 12.1626 106.948 12.1626ZM106.948 2.97617C104.557 2.97617 102.611 4.89763 102.611 7.25997C102.611 9.62231 104.557 11.5438 106.948 11.5438C109.34 11.5438 111.287 9.62231 111.287 7.25997C111.287 4.89763 109.341 2.97617 106.948 2.97617Z" fill="#1D1D1B"/>
<path d="M106.949 10.5081C108.765 10.5081 110.237 9.05383 110.237 7.25996C110.237 5.46609 108.765 4.01187 106.949 4.01187C105.132 4.01187 103.66 5.46609 103.66 7.25996C103.66 9.05383 105.132 10.5081 106.949 10.5081Z" fill="#1D1D1B"/>
<path d="M109.782 7.25798C109.797 7.73384 109.549 8.16272 109.2 8.2297C108.724 8.32168 108.468 8.04876 108.279 7.66386C108.065 7.23198 107.969 6.78611 108.056 6.30824C108.159 5.7464 108.728 5.51846 109.202 5.84837C109.58 6.1123 109.76 6.54917 109.782 7.25798Z" fill="white"/>
<path d="M83.4374 11.8527C86.0059 11.8527 88.0881 9.79645 88.0881 7.25997C88.0881 4.72348 86.0059 2.66725 83.4374 2.66725C80.8688 2.66725 78.7866 4.72348 78.7866 7.25997C78.7866 9.79645 80.8688 11.8527 83.4374 11.8527Z" fill="#DDD443"/>
<path d="M83.4373 12.1626C80.7005 12.1626 78.4734 9.96322 78.4734 7.26097C78.4734 4.55873 80.6995 2.35934 83.4373 2.35934C86.1751 2.35934 88.4013 4.55873 88.4013 7.26097C88.4013 9.96322 86.1741 12.1626 83.4373 12.1626ZM83.4373 2.97617C81.0456 2.97617 79.0987 4.89763 79.0987 7.25997C79.0987 9.62231 81.0446 11.5438 83.4373 11.5438C85.829 11.5438 87.7759 9.62231 87.7759 7.25997C87.7759 4.89763 85.83 2.97617 83.4373 2.97617Z" fill="#1D1D1B"/>
<path d="M83.4373 10.5081C85.2534 10.5081 86.7256 9.05383 86.7256 7.25996C86.7256 5.46609 85.2534 4.01187 83.4373 4.01187C81.6212 4.01187 80.1489 5.46609 80.1489 7.25996C80.1489 9.05383 81.6212 10.5081 83.4373 10.5081Z" fill="#1D1D1B"/>
<path d="M80.8591 6.24925C80.8621 5.53945 81.5653 4.89963 82.2914 4.94562C82.6913 4.97061 82.8998 5.26553 82.7352 5.62243C82.4849 6.16328 82.0321 6.55217 81.5643 6.88808C81.2142 7.14001 80.8571 6.7971 80.8591 6.24925Z" fill="#FDFDFD"/>
<path d="M15.5171 83.5644C14.4799 84.0442 12.4462 84.5641 10.0126 84.5641C3.9486 84.5641 0 80.6852 0 74.6479C0 68.8105 3.9885 64.2518 10.8105 64.2518C12.6058 64.2518 14.441 64.6517 15.557 65.1715L14.6794 68.8505C13.8815 68.4906 12.7245 68.0907 10.9691 68.0907C7.21999 68.0907 4.98587 70.8499 5.02577 74.4079C5.02577 78.4058 7.61894 80.6852 10.9691 80.6852C12.6846 80.6852 13.8815 80.3253 14.8379 79.9254L15.5171 83.5644Z" fill="#F0EEAC"/>
<path d="M37.2569 74.2482C37.2569 81.4052 32.2311 84.6043 27.2842 84.6043C21.7796 84.6043 17.5508 80.8054 17.5508 74.5681C17.5508 68.1709 21.7398 64.252 27.6033 64.252C33.3881 64.252 37.2569 68.3309 37.2569 74.2482ZM22.6174 74.4482C22.6174 78.2071 24.4526 81.0453 27.4437 81.0453C30.2364 81.0453 32.1902 78.2861 32.1902 74.3682C32.1902 71.3291 30.8338 67.851 27.4836 67.851C24.0138 67.851 22.6174 71.2091 22.6174 74.4482Z" fill="#F0EEAC"/>
<path d="M41.2853 70.4893C41.2853 68.2499 41.2454 66.3704 41.1257 64.6919H45.3546L45.5541 67.5711H45.6738C46.6312 66.0515 48.3866 64.252 51.657 64.252C54.2103 64.252 56.204 65.6916 57.0418 67.85H57.1216C57.7998 66.7703 58.5977 65.9706 59.5153 65.4107C60.5925 64.6509 61.8292 64.251 63.424 64.251C66.6555 64.251 69.9259 66.4504 69.9259 72.6877V84.1635H65.1395V73.4085C65.1395 70.1694 64.0224 68.2509 61.6696 68.2509C59.9941 68.2509 58.7573 69.4506 58.2387 70.8502C58.119 71.3301 57.9993 71.9299 57.9993 72.4897V84.1645H53.2129V72.8886C53.2129 70.1694 52.1357 68.2509 49.8617 68.2509C48.0266 68.2509 46.7898 69.6905 46.351 71.0501C46.1515 71.53 46.0717 72.0898 46.0717 72.6497V84.1655H41.2853V70.4893Z" fill="#F0EEAC"/>
<path d="M75.1103 71.1691C75.1103 68.6098 75.0305 66.5304 74.9507 64.6919H79.2583L79.4977 67.6911H79.5775C81.0137 65.4917 83.2877 64.252 86.239 64.252C90.7062 64.252 94.4164 68.091 94.4164 74.1683C94.4164 81.2053 89.9891 84.6043 85.5607 84.6043C83.1272 84.6043 81.0925 83.5646 80.0961 82.0051H80.0163V92.0812H75.1103V71.1691ZM80.0173 76.0077C80.0173 76.4876 80.0572 76.9275 80.1769 77.3674C80.6557 79.3668 82.411 80.8064 84.4846 80.8064C87.5964 80.8064 89.4306 78.2071 89.4306 74.3692C89.4306 70.9302 87.755 68.1319 84.6043 68.1319C82.5696 68.1319 80.6956 69.6115 80.2168 71.7709C80.0971 72.1708 80.0173 72.6107 80.0173 73.0106V76.0077Z" fill="#F0EEAC"/>
<path d="M109.375 84.1645L109.056 82.0051H108.936C107.739 83.5246 105.705 84.6043 103.192 84.6043C99.2826 84.6043 97.0894 81.7651 97.0894 78.807C97.0894 73.8893 101.437 71.41 108.618 71.45V71.1301C108.618 69.8505 108.099 67.7311 104.669 67.7311C102.754 67.7311 100.761 68.3309 99.4442 69.1707L98.4867 65.9715C99.9229 65.0918 102.435 64.252 105.507 64.252C111.73 64.252 113.525 68.2099 113.525 72.4487V79.4858C113.525 81.2453 113.605 82.9638 113.804 84.1635H109.375V84.1645ZM108.737 74.6481C105.267 74.5681 101.956 75.3279 101.956 78.2871C101.956 80.2066 103.192 81.0863 104.748 81.0863C106.703 81.0863 108.139 79.8067 108.578 78.4071C108.698 78.0472 108.738 77.6473 108.738 77.3274V74.6481H108.737Z" fill="#F0EEAC"/>
<path d="M118.709 70.4893C118.709 68.2499 118.669 66.3704 118.55 64.6919H122.857L123.097 67.6111H123.217C124.054 66.0915 126.169 64.252 129.399 64.252C132.79 64.252 136.3 66.4514 136.3 72.6087V84.1645H131.394V73.1685C131.394 70.3693 130.357 68.2509 127.684 68.2509C125.729 68.2509 124.372 69.6505 123.854 71.1301C123.694 71.57 123.654 72.1698 123.654 72.7297V84.1655H118.708V70.4893H118.709Z" fill="#F0EEAC"/>
<path d="M143.959 64.6919L147.469 75.128C147.868 76.3277 148.267 77.8072 148.546 78.9269H148.666C148.985 77.8072 149.344 76.3677 149.703 75.088L152.735 64.6919H158L153.134 77.9662C150.461 85.2432 148.667 88.4823 146.353 90.4807C144.438 92.2002 142.444 92.84 141.207 93L140.09 88.8412C140.928 88.6412 141.965 88.2013 142.963 87.4815C143.88 86.8817 144.957 85.722 145.636 84.4024C145.835 84.0425 145.955 83.7626 145.955 83.5227C145.955 83.3227 145.915 83.0428 145.675 82.5629L138.575 64.6899H143.959V64.6919Z" fill="#F0EEAC"/>
<path d="M77.9506 35.2811C78.8403 35.922 79.8436 36.3508 80.8998 36.6488C81.9341 36.9407 83.0931 37.3116 84.1772 37.1526C85.2893 36.9897 86.0832 36.2199 86.4492 35.1982C86.8063 34.2004 86.7574 33.0198 85.9426 32.251C85.2234 31.5722 84.1742 31.2673 83.2885 30.8634C82.351 30.4365 81.4384 29.9626 80.6216 29.3348C79.8935 28.776 78.543 27.7472 77.6614 28.618C77.2325 29.0409 77.2844 29.7007 77.7252 30.0876C78.1571 30.4655 78.6837 30.7774 79.1634 31.0913C80.1887 31.7631 81.2539 32.3749 82.352 32.9238C82.8587 33.1777 83.3893 33.4107 83.8291 33.7726C83.887 33.8205 83.9408 33.8795 84.0007 33.9245C84.0864 34.0265 84.0964 34.0235 84.0296 33.9175C84.0116 33.8775 83.9977 33.8925 83.9887 33.9625C83.9338 33.9875 83.86 34.1824 83.8162 34.2384C83.7593 34.3054 83.6995 34.3694 83.6366 34.4294C83.509 34.5373 83.506 34.5463 83.6286 34.4564C83.7603 34.4914 83.892 34.5263 84.0236 34.5613C84.1413 34.6213 84.0436 34.6743 84.0904 34.5743C84.0904 34.5733 84.0585 34.3194 84.0854 34.3624C84.0844 34.3604 84.1054 34.3284 84.1064 34.3294C84.1074 34.3254 84.1094 34.3224 84.1124 34.3214C84.1662 34.2924 84.1114 34.3104 83.9488 34.3764C83.8341 34.3104 83.7184 34.2444 83.6037 34.1774C83.5618 34.1365 83.6097 34.2254 83.6097 34.2254C83.5688 34.3064 83.5898 34.3644 83.5239 34.4264C83.4551 34.4914 83.3284 34.5024 83.2097 34.5104C83.1709 34.5133 82.8976 34.4934 82.8876 34.5074C82.9883 34.6113 83.0891 34.7153 83.1898 34.8193C83.1888 34.7843 83.1888 34.7493 83.1878 34.7133C83.2945 34.2584 83.3095 33.7516 83.3703 33.2867C83.4242 32.8728 83.3903 32.4539 83.0691 32.146C82.3121 31.4202 81.234 32.222 80.852 32.9408C80.6395 33.3407 80.5298 33.7935 80.5458 34.2454C80.5547 34.4944 80.5966 34.7553 80.6684 34.9942C80.7133 35.1442 80.7831 35.2611 80.7642 35.4001C80.8001 35.2701 80.835 35.1402 80.8709 35.0102C80.9038 34.9762 80.9367 34.9432 80.9697 34.9092C81.1013 34.8742 81.233 34.8393 81.3646 34.8043C81.604 34.9922 81.6828 35.0292 81.602 34.9142C81.5731 34.8373 81.5501 34.7583 81.5312 34.6783C81.5142 34.5853 81.5072 34.4914 81.5122 34.3944C81.5172 34.3184 81.5481 33.9615 81.6449 33.9315C81.8074 33.8815 81.9521 34.3704 81.9211 34.4754C81.988 34.3614 82.0548 34.2484 82.1226 34.1345C81.975 34.3094 81.3965 34.0675 81.221 34.0045C80.8131 33.8575 80.4221 33.6636 80.0461 33.4496C79.8506 33.3387 79.6461 33.2247 79.4656 33.0907C79.4337 33.0678 79.2891 32.9178 79.333 32.9958C79.3599 33.0438 79.322 32.9198 79.324 32.8938C79.335 32.7788 79.3878 32.7069 79.4147 32.6019C79.3898 32.6969 79.2532 32.6009 79.3828 32.6479C79.4506 32.6729 79.6152 32.6439 79.685 32.6489C80.0301 32.6759 80.3682 32.8038 80.6515 32.9988C80.7014 33.0328 80.9667 33.2947 80.9577 33.2967C80.9567 33.2967 80.9736 33.2057 80.9796 33.1367C80.9976 32.9338 81.1123 33.1617 80.9916 33.1057C80.9038 33.0658 80.7672 33.0478 80.6575 32.9808C80.4969 32.8828 80.3573 32.7638 80.2246 32.6329C80.0959 32.5069 79.9842 32.3799 79.9025 32.219C79.8715 32.159 79.8576 32.085 79.8247 32.028C79.7618 31.9161 79.8735 31.7751 79.7399 32.044C79.6461 32.136 79.5524 32.229 79.4596 32.321C79.3529 32.3949 79.2741 32.304 79.4127 32.3779C79.4566 32.4009 79.5294 32.4189 79.5753 32.4399C79.7519 32.5179 79.9414 32.6239 80.0959 32.7388C80.3174 32.9038 80.4929 33.1037 80.4919 33.3867C80.7522 33.1297 81.0135 32.8718 81.2738 32.6149C80.0241 32.6579 79.3 31.5212 78.945 30.4825C78.562 30.7734 78.179 31.0643 77.796 31.3542C78.0294 31.4722 78.1471 31.6422 78.2358 31.8851C78.2957 32.048 78.3296 32.222 78.3645 32.3919C78.3845 32.4899 78.3805 32.6839 78.4293 32.7718C78.4353 32.8038 78.4353 32.8358 78.4283 32.8678C78.6857 32.8398 78.7824 32.7718 78.7196 32.6649C78.6946 32.6039 78.555 32.5299 78.5071 32.4779C78.3286 32.281 78.2428 32.063 78.189 31.8061C77.8688 32.123 77.5477 32.4389 77.2275 32.7558C77.4938 32.8298 77.7162 32.9628 77.8957 33.1737C77.9686 33.2597 78.0354 33.3617 78.0832 33.4636C78.1082 33.5176 78.1271 33.5736 78.1441 33.6316C78.1551 33.6656 78.164 33.7006 78.171 33.7366C78.19 33.8445 78.1989 33.8065 78.196 33.6216C78.2897 33.5296 78.3835 33.4367 78.4762 33.3447C78.1491 33.5646 77.6953 33.4856 77.3462 33.3657C77.2774 33.8715 77.2076 34.3764 77.1387 34.8822C77.3911 34.8882 77.6444 34.8942 77.8967 34.9002C78.0304 34.9032 78.3166 34.8663 78.4024 34.9312C78.3087 34.8393 78.2149 34.7463 78.1221 34.6543C78.1102 34.6093 78.0972 34.5643 78.0852 34.5183C78.1211 34.3884 78.1561 34.2584 78.192 34.1285C78.175 34.1534 78.159 34.1774 78.1421 34.2024C78.2358 34.1105 78.3296 34.0175 78.4224 33.9255C78.6019 33.8115 78.577 33.9785 78.4263 33.8635C78.3306 33.7906 78.2269 33.7506 78.1361 33.6686C77.9556 33.5066 77.8239 33.2837 77.7382 33.0608C77.4908 32.4169 77.5656 31.6851 77.5746 31.0123C77.5786 30.7164 77.5347 30.3735 77.6105 30.0856C77.6663 29.8746 77.8459 29.5187 78.0493 29.4068C77.9097 29.4838 77.9576 29.4438 78.0982 29.5058C78.2049 29.5527 78.3136 29.6167 78.4144 29.6757C78.6597 29.8177 78.7445 29.9086 78.7884 30.1876C78.9041 30.9194 78.8293 31.6511 78.8452 32.3839C78.8482 32.5309 78.8004 32.5039 78.8432 32.4719C78.7804 32.5199 78.6627 32.5349 78.5859 32.5459C78.3037 32.5889 77.9845 32.5659 77.7062 32.5149C77.3073 32.4419 76.9273 32.32 76.5174 32.4129C76.1753 32.4909 75.879 32.7199 75.6985 33.0138C75.2318 33.7766 75.7155 34.6133 76.4805 34.8982C76.8754 35.0452 77.3372 34.7353 77.4419 34.3594C77.5626 33.9265 77.2923 33.5566 76.8954 33.4097C77.022 33.4566 77.1238 33.6646 77.048 33.7945C76.8734 34.0915 76.7707 33.8465 76.9642 33.9325C77.1128 33.9985 77.3322 34.0145 77.4918 34.0385C77.9307 34.1055 78.3615 34.1235 78.8024 34.0655C79.699 33.9465 80.3004 33.3987 80.3972 32.4979C80.4839 31.6961 80.4351 30.8534 80.3353 30.0556C80.2216 29.1528 79.7429 28.611 78.941 28.2011C78.1192 27.7812 77.3063 27.8302 76.7069 28.577C76.4675 28.8759 76.2591 29.1928 76.1374 29.5577C75.9977 29.9796 76.0147 30.4275 76.0107 30.8664C75.9977 32.4099 75.9868 34.2644 77.5387 35.1472C78.2698 35.5631 79.679 35.595 79.6591 34.4304C79.6382 33.1727 77.9905 33.3597 77.1367 33.3397C76.2192 33.3177 76.1244 34.5803 76.9293 34.8563C78.0453 35.2401 79.9813 34.9892 79.698 33.4336C79.5075 32.3909 78.6577 31.5512 77.6414 31.2683C77.039 31.1003 76.5603 31.6561 76.6799 32.218C76.8116 32.8398 77.1597 33.4037 77.6614 33.7995C78.2727 34.2824 79.1734 34.4174 79.701 33.7316C80.1588 33.1367 79.9773 32.33 79.7967 31.6631C79.6142 30.9863 79.2322 30.3485 78.5829 30.0216C78.0164 29.7367 77.2026 30.2155 77.434 30.8934C78.0104 32.5779 79.2881 34.2284 81.2709 34.1604C81.6947 34.1455 82.0518 33.8185 82.0528 33.3887C82.0568 32.132 80.846 31.0663 79.6431 30.8514C78.8961 30.7184 78.2269 31.0893 78.2368 31.8921C78.2448 32.5399 78.56 33.1197 78.9869 33.5936C79.7748 34.4694 81.4783 35.2631 82.2962 33.9575C83.097 32.6789 81.5352 31.5132 80.4241 31.2193C79.8646 31.0713 79.1095 30.9953 78.5859 31.2942C78.0414 31.6052 77.7382 32.348 77.7541 32.9498C77.792 34.3224 79.5065 34.9862 80.6066 35.4201C81.1941 35.652 81.8563 35.822 82.4857 35.653C82.8198 35.5641 83.1639 35.3721 83.3434 35.0692C83.5269 34.7593 83.489 34.3814 83.4302 34.0435C83.3274 33.4506 82.9814 32.8798 82.4338 32.5919C81.8453 32.283 81.0983 32.33 80.5986 32.7818C80.083 33.2477 79.8865 34.0315 79.9563 34.6993C80.0341 35.4431 80.4211 36.3578 81.3127 36.3488C82.2313 36.3398 82.4418 35.4191 82.2134 34.7123C82.1216 34.4274 82.0488 34.1415 82.1456 33.8475C82.1795 33.7446 82.2233 33.6486 82.2902 33.5596C82.3151 33.5266 82.356 33.5016 82.3769 33.4666C82.4847 33.2927 82.6053 33.5136 82.2692 33.4067C82.1545 33.3407 82.0388 33.2747 81.9241 33.2077C81.597 32.9348 81.8952 32.8718 81.8294 33.0428C81.7935 33.1347 81.8025 33.2607 81.7895 33.3587C81.7586 33.5866 81.7277 33.8145 81.6977 34.0435C81.6449 34.4364 81.5651 34.8283 81.6888 35.2172C81.978 36.1259 83.1679 36.1959 83.9428 35.929C84.6589 35.683 85.1586 34.9902 85.1596 34.2364C85.1606 33.3097 84.3707 32.4799 83.4122 32.9388C82.6223 33.3167 82.3769 34.2434 82.5874 35.0382C82.6821 35.3951 82.8896 35.717 83.2267 35.889C83.7493 36.1559 84.2859 35.916 84.6869 35.5601C85.3072 35.0072 85.8608 34.0295 85.412 33.2227C85.0379 32.5499 84.1832 32.107 83.5189 31.7751C82.6712 31.3522 81.8364 30.9134 81.0235 30.4275C80.6395 30.1976 80.2595 29.9586 79.8855 29.7127C79.689 29.5827 79.4935 29.4518 79.299 29.3178C79.2023 29.2508 79.1056 29.1838 79.0088 29.1159C78.9699 29.0889 78.932 29.0609 78.8931 29.0339C78.7385 28.9009 78.7345 28.9289 78.8811 29.1179C78.8811 29.2548 78.8811 29.3918 78.8811 29.5287C78.8811 29.5347 78.8802 29.5417 78.8802 29.5477C78.7864 29.6397 78.6926 29.7327 78.5999 29.8247C78.5381 29.8686 78.3835 29.7697 78.5071 29.8477C78.552 29.8756 78.6358 29.8806 78.6857 29.9006C78.7764 29.9356 78.8622 29.9846 78.946 30.0336C79.1614 30.1586 79.3599 30.3085 79.5574 30.4595C80.0231 30.8174 80.4949 31.1543 81.0066 31.4462C81.9999 32.012 83.0671 32.4209 84.1014 32.9038C84.4515 33.0668 84.8883 33.2567 85.0389 33.6356C85.2065 34.0545 85.033 34.6473 84.8225 35.0212C84.2979 35.9549 83.111 35.607 82.2722 35.4031C80.9946 35.0922 79.8057 34.7163 78.7315 33.9425C78.3904 33.6966 77.8598 33.8855 77.6614 34.2194C77.4389 34.6153 77.6085 35.0352 77.9506 35.2811Z" fill="#93C252"/>
<path d="M78.1641 27.4753C77.9098 27.7512 78.0544 27.9762 78.2739 28.1701C78.9551 28.7729 79.6911 29.3048 80.4641 29.7857C81.5582 30.4665 82.7221 31.0093 83.92 31.4872C84.306 31.6411 84.688 31.8111 85.053 32.007C86.2189 32.6329 86.6817 33.6576 86.3626 34.9252C86.1771 35.66 85.82 36.2739 85.0939 36.6437C84.6351 36.8777 84.1644 36.8767 83.6866 36.8427C82.2444 36.7397 80.9359 36.1769 79.6363 35.619C77.2017 34.5733 75.0962 33.0617 73.3119 31.1163C73.1553 30.9453 72.9848 30.7824 72.8023 30.6394C72.5898 30.4755 72.3724 30.4595 72.1989 30.7114C72.0243 31.0053 72.2188 31.2033 72.3993 31.3852C73.5154 32.5179 74.6564 33.6146 75.9978 34.5023C77.1917 35.2931 78.4334 35.9779 79.7599 36.5188C80.3424 36.7077 80.9049 36.9507 81.4804 37.1566C82.4738 37.5135 83.4951 37.6815 84.5493 37.6175C85.2106 37.5775 85.7382 37.2696 86.1481 36.7597C87.1216 35.5481 87.4407 34.2314 86.7775 32.7728C86.4204 31.9881 85.7402 31.5452 84.9812 31.1963C84.0746 30.7794 83.1341 30.4415 82.2414 29.9926C81.0286 29.3838 79.9125 28.638 78.8593 27.7932C78.6539 27.6303 78.4304 27.5103 78.1641 27.4753Z" fill="#010101"/>
<path d="M111.507 33.9475C110.575 34.6183 109.559 35.0042 108.45 35.2881C107.606 35.5041 106.311 36.0189 105.597 35.2711C105.302 34.9622 105.154 34.4704 105.144 34.0525C105.132 33.5786 105.371 33.3197 105.77 33.0957C106.74 32.5509 107.82 32.2 108.808 31.6831C109.386 31.3802 109.934 31.0363 110.452 30.6414C110.677 30.4705 110.896 30.2925 111.134 30.1386C111.253 30.0606 111.379 29.9796 111.512 29.9236C111.544 29.9096 111.577 29.8996 111.612 29.8886C111.651 29.8746 111.691 29.8636 111.732 29.8547C111.843 29.8337 111.812 29.8257 111.639 29.8317C111.545 29.7397 111.452 29.6467 111.359 29.5547C111.359 29.5487 111.358 29.5417 111.358 29.5357C111.358 29.3988 111.358 29.2618 111.358 29.1249C111.412 28.8609 111.52 28.9619 111.346 29.0409C111.245 29.0869 111.148 29.1808 111.057 29.2448C110.883 29.3658 110.708 29.4858 110.531 29.6037C110.178 29.8397 109.821 30.0676 109.458 30.2885C108.754 30.7194 108.033 31.1213 107.296 31.4962C106.565 31.8681 105.83 32.21 105.217 32.7638C104.486 33.4247 104.567 34.3214 105.12 35.0732C105.369 35.4101 105.675 35.752 106.072 35.915C106.574 36.1199 107.151 35.9679 107.45 35.5081C107.876 34.8523 107.824 33.8445 107.277 33.2727C106.603 32.5679 105.502 32.7278 105.173 33.6686C104.936 34.3474 105.173 35.1552 105.724 35.616C106.404 36.1859 107.889 36.3308 108.426 35.4941C108.665 35.1212 108.629 34.6933 108.573 34.2784C108.539 34.0245 108.505 33.7716 108.471 33.5176C108.454 33.3917 108.431 33.2647 108.42 33.1377C108.417 33.1087 108.414 33.0788 108.411 33.0498C108.418 32.8708 108.386 32.9258 108.316 33.2147C108.201 33.2807 108.086 33.3467 107.971 33.4137C107.818 33.4616 107.711 33.2667 107.846 33.4496C107.864 33.4746 107.879 33.4886 107.902 33.5136C107.973 33.5886 108.032 33.6786 108.072 33.7736C108.16 33.9865 108.157 34.2334 108.107 34.4534C107.967 35.0692 107.694 35.801 108.407 36.2119C109.129 36.6278 109.837 36.1049 110.106 35.4411C110.341 34.8633 110.367 34.1804 110.15 33.5916C109.916 32.9568 109.422 32.4419 108.707 32.3989C108.079 32.3609 107.512 32.6869 107.158 33.1837C106.828 33.6456 106.61 34.4464 106.857 34.9822C107.168 35.659 108.038 35.783 108.702 35.688C109.353 35.595 109.986 35.3041 110.568 35.0122C111.127 34.7323 111.79 34.3994 112.172 33.8945C112.593 33.3377 112.541 32.6109 112.261 32.006C111.967 31.3742 111.428 31.1083 110.743 31.1053C109.626 31.0993 108.071 31.7321 107.776 32.9158C107.601 33.6226 108.021 34.2934 108.688 34.5463C109.327 34.7893 110.002 34.5883 110.543 34.2094C111.125 33.8015 111.62 33.2757 111.873 32.6089C112.134 31.9201 112.034 30.9723 111.155 30.8444C110.459 30.7434 109.756 31.1153 109.216 31.5172C108.603 31.9721 108.186 32.6189 108.189 33.3937C108.19 33.8215 108.546 34.1515 108.971 34.1654C110.954 34.2334 112.233 32.5829 112.808 30.8984C113.04 30.2196 112.228 29.7397 111.659 30.0266C111.031 30.3435 110.653 30.9523 110.462 31.6052C110.265 32.281 110.076 33.1307 110.542 33.7366C111.038 34.3814 111.899 34.3104 112.503 33.8645C113.045 33.4636 113.424 32.8788 113.563 32.223C113.682 31.6611 113.203 31.1053 112.602 31.2733C111.585 31.5562 110.736 32.3969 110.545 33.4387C110.262 34.9942 112.197 35.2451 113.314 34.8613C114.112 34.5873 114.032 33.3227 113.106 33.3447C112.303 33.3637 111.082 33.1697 110.678 34.0505C110.48 34.4824 110.629 35.0062 111.034 35.2651C111.388 35.4931 111.825 35.4821 112.218 35.3631C113.877 34.8573 114.263 33.0268 114.244 31.5332C114.233 30.6834 114.314 29.8107 113.868 29.0459C113.455 28.3371 112.773 27.7292 111.888 27.9642C111.163 28.1561 110.355 28.672 110.067 29.3748C109.752 30.1476 109.797 31.1573 109.818 31.9791C109.829 32.4139 109.839 32.8778 110.065 33.2647C110.291 33.6496 110.682 33.9015 111.112 34.0145C111.549 34.1285 112.03 34.1315 112.476 34.0815C112.703 34.0555 112.927 34.0175 113.15 33.9675C113.193 33.9575 113.388 33.9365 113.393 33.9245C113.327 33.8835 113.26 33.8415 113.194 33.8005C113.125 33.6096 113.176 33.4816 113.347 33.4157C112.952 33.5626 112.681 33.9375 112.8 34.3654C112.904 34.7403 113.365 35.0522 113.762 34.9042C114.536 34.6173 114.999 33.7876 114.544 33.0198C114.368 32.7239 114.064 32.4959 113.725 32.4189C113.315 32.326 112.936 32.4479 112.536 32.5209C112.258 32.5719 111.937 32.5949 111.656 32.5519C111.579 32.5399 111.462 32.5249 111.399 32.4779C111.441 32.5099 111.394 32.5369 111.397 32.3899C111.413 31.6571 111.338 30.9254 111.454 30.1936C111.499 29.9136 111.583 29.8247 111.828 29.6817C111.929 29.6217 112.035 29.5587 112.144 29.5117C112.285 29.4508 112.332 29.4888 112.193 29.4128C112.396 29.5247 112.576 29.8806 112.632 30.0916C112.708 30.3825 112.663 30.7204 112.667 31.0183C112.676 31.6951 112.747 32.4189 112.504 33.0668C112.42 33.2897 112.285 33.5136 112.106 33.6746C112.014 33.7566 111.911 33.7966 111.816 33.8695C111.665 33.9845 111.641 33.8175 111.82 33.9315C111.913 34.0235 112.007 34.1165 112.1 34.2084C112.083 34.1834 112.067 34.1594 112.05 34.1345C112.086 34.2644 112.121 34.3944 112.157 34.5243C112.145 34.5693 112.132 34.6143 112.12 34.6603C112.026 34.7523 111.932 34.8453 111.84 34.9372C111.921 34.8752 112.228 34.9092 112.345 34.9062C112.598 34.9002 112.851 34.8942 113.103 34.8882C113.035 34.3824 112.965 33.8775 112.896 33.3717C112.546 33.4916 112.093 33.5706 111.766 33.3507C111.86 33.4426 111.953 33.5356 112.046 33.6276C112.108 33.7106 112.01 33.8765 112.083 33.6896C112.111 33.6196 112.122 33.5446 112.154 33.4766C112.203 33.3727 112.272 33.2667 112.346 33.1797C112.526 32.9688 112.748 32.8358 113.015 32.7618C112.694 32.4449 112.373 32.129 112.053 31.8121C111.998 32.069 111.913 32.287 111.735 32.4839C111.688 32.5359 111.548 32.6099 111.522 32.6709C111.46 32.7778 111.556 32.8448 111.814 32.8738C111.808 32.8418 111.807 32.8098 111.813 32.7778C111.863 32.6899 111.858 32.4959 111.878 32.3979C111.912 32.228 111.947 32.055 112.006 31.8911C112.095 31.6482 112.213 31.4772 112.446 31.3602C112.063 31.0693 111.68 30.7784 111.297 30.4885C110.942 31.5272 110.218 32.6649 108.968 32.6209C109.229 32.8778 109.49 33.1357 109.75 33.3927C109.749 33.1107 109.926 32.9088 110.146 32.7448C110.288 32.6389 110.451 32.5509 110.611 32.4729C110.664 32.4469 110.715 32.4199 110.77 32.4009C110.994 32.326 110.91 32.4139 110.783 32.327C110.69 32.235 110.596 32.142 110.503 32.05C110.376 31.7941 110.455 31.9841 110.371 32.173C110.299 32.333 110.185 32.4709 110.063 32.5949C109.867 32.7958 109.584 33.0598 109.304 33.1247C109.164 33.1577 109.256 33.0588 109.231 33.1117C109.219 33.1357 109.324 33.3017 109.286 33.3007C109.278 33.3007 109.553 33.0298 109.593 33.0028C109.876 32.8068 110.215 32.6809 110.559 32.6529C110.639 32.6469 110.722 32.6579 110.801 32.6489C111.044 32.6219 110.877 32.7049 110.83 32.6059C110.874 32.6979 110.906 32.7958 110.921 32.8978C110.941 33.0338 110.912 32.9968 110.779 33.0947C110.616 33.2157 110.434 33.3177 110.258 33.4197C109.884 33.6356 109.494 33.8325 109.088 33.9845C108.898 34.0555 108.281 34.3264 108.122 34.1385C108.189 34.2524 108.256 34.3654 108.324 34.4794C108.293 34.3734 108.439 33.8855 108.6 33.9355C108.7 33.9665 108.728 34.3124 108.733 34.3984C108.739 34.4934 108.732 34.5893 108.714 34.6823C108.696 34.7623 108.672 34.8413 108.643 34.9182C108.562 35.0332 108.641 34.9972 108.88 34.8083C109.012 34.8433 109.144 34.8782 109.275 34.9132C109.308 34.9472 109.341 34.9802 109.374 35.0142C109.41 35.1442 109.445 35.2741 109.481 35.4041C109.463 35.2651 109.531 35.1522 109.577 34.9982C109.642 34.7783 109.677 34.5463 109.694 34.3184C109.728 33.8645 109.624 33.4007 109.42 32.9948C109.049 32.257 107.952 31.4062 107.176 32.15C106.52 32.7788 107.011 33.8965 107.053 34.6643C107.057 34.6993 107.058 34.7353 107.056 34.7703C107.041 34.9622 107.142 34.8762 107.358 34.5113C107.307 34.4864 107.163 34.5173 107.105 34.5163C107.008 34.5144 106.819 34.5064 106.756 34.4634C106.651 34.3934 106.686 34.3224 106.637 34.2284C106.641 34.2354 106.684 34.1405 106.643 34.1804C106.529 34.2464 106.413 34.3124 106.298 34.3794C106.259 34.3954 106.159 34.3064 106.139 34.3294C106.134 34.3354 106.183 34.3424 106.162 34.3654C106.147 34.3824 106.163 34.4894 106.169 34.5183C106.209 34.7003 106.06 34.6463 106.222 34.5643C106.354 34.5293 106.486 34.4944 106.617 34.4594C106.647 34.4804 106.676 34.5004 106.706 34.5213C106.639 34.4644 106.577 34.4034 106.517 34.3394C106.439 34.2544 106.38 34.1774 106.322 34.0785C106.365 34.1515 106.182 33.8375 106.216 33.9195C106.201 33.9465 106.188 33.9735 106.173 34.0015C106.207 33.9635 106.244 33.9265 106.283 33.8925C106.657 33.5446 107.118 33.3107 107.573 33.0857C108.548 32.6029 109.502 32.085 110.426 31.5122C110.887 31.2263 111.341 30.9294 111.786 30.6204C112.252 30.2975 112.891 29.9746 112.891 29.3318C112.891 28.714 112.302 28.2761 111.708 28.3041C111.157 28.3311 110.626 28.603 110.186 28.9129C109.33 29.5147 108.532 30.1066 107.584 30.5705C106.684 31.0103 105.673 31.3182 104.826 31.8541C103.843 32.4759 103.45 33.4526 103.634 34.5793C103.796 35.5661 104.35 36.5008 105.294 36.9277C106.482 37.4645 107.807 37.0576 109.001 36.7447C110.179 36.4358 111.304 35.9969 112.293 35.2841C112.635 35.0392 112.802 34.6133 112.574 34.2274C112.379 33.8925 111.85 33.7006 111.507 33.9475Z" fill="#93C252"/>
<path d="M112.082 27.4753C112.336 27.7512 112.192 27.9762 111.972 28.1701C111.291 28.7729 110.555 29.3048 109.782 29.7857C108.688 30.4665 107.524 31.0093 106.326 31.4872C105.94 31.6411 105.558 31.8111 105.193 32.007C104.027 32.6329 103.564 33.6576 103.883 34.9252C104.069 35.66 104.426 36.2739 105.152 36.6437C105.611 36.8777 106.082 36.8767 106.559 36.8427C108.002 36.7397 109.31 36.1769 110.61 35.619C113.044 34.5733 115.15 33.0617 116.934 31.1163C117.091 30.9453 117.261 30.7824 117.444 30.6394C117.656 30.4755 117.874 30.4595 118.047 30.7114C118.222 31.0053 118.027 31.2033 117.847 31.3852C116.731 32.5179 115.59 33.6146 114.248 34.5023C113.054 35.2931 111.813 35.9779 110.486 36.5188C109.904 36.7077 109.341 36.9507 108.766 37.1566C107.772 37.5135 106.751 37.6815 105.697 37.6175C105.035 37.5775 104.508 37.2696 104.098 36.7597C103.124 35.5481 102.805 34.2314 103.469 32.7728C103.826 31.9881 104.506 31.5452 105.266 31.1963C106.172 30.7794 107.113 30.4415 108.006 29.9926C109.218 29.3838 110.334 28.638 111.388 27.7932C111.592 27.6303 111.817 27.5103 112.082 27.4753Z" fill="#010101"/>
</g>
<defs>
<clipPath id="clip0_140_6165">
<rect width="158" height="93" fill="white"/>
</clipPath>
</defs>
</svg>
