<svg width="40" height="40" viewBox="0 0 40 40" fill="none" xmlns="http://www.w3.org/2000/svg">
<path d="M20 40C31.0457 40 40 31.0457 40 20C40 8.95431 31.0457 0 20 0C8.95431 0 0 8.95431 0 20C0 31.0457 8.95431 40 20 40Z" fill="url(#paint0_linear_105_99)"/>
<path fill-rule="evenodd" clip-rule="evenodd" d="M9.17394 19.6558C14.9897 17.1219 18.8676 15.4512 20.8074 14.6437C26.3479 12.3405 27.5051 11.9405 28.2493 11.9256C28.5253 11.9202 28.7959 12.0016 29.0232 12.1582C29.1827 12.2957 29.2844 12.4884 29.3079 12.6977C29.348 12.958 29.3592 13.2219 29.3414 13.4847C29.0418 16.6475 27.7414 24.2921 27.0809 27.8251C26.8018 29.3135 26.2511 29.8214 25.7172 29.8717C24.56 29.9777 23.6707 29.1051 22.5544 28.3703C20.7981 27.2186 19.8065 26.5098 18.1023 25.3786C16.1321 24.0763 17.4102 23.3675 18.5321 22.2028C18.826 21.8977 23.9274 17.254 24.0279 16.8335C24.0411 16.7714 24.0396 16.7071 24.0235 16.6457C24.0073 16.5843 23.977 16.5276 23.9349 16.48C23.8738 16.4419 23.8047 16.4185 23.733 16.4117C23.6613 16.4049 23.589 16.4149 23.5218 16.441C23.347 16.4794 20.5426 18.333 15.1088 22.0019C14.3125 22.5489 13.5913 22.8155 12.9451 22.8019C12.2325 22.7851 10.8632 22.3982 9.8437 22.0577C8.59533 21.6521 7.61115 21.4382 7.68929 20.7554C7.73518 20.3982 8.23006 20.0317 9.17394 19.6558Z" fill="white"/>
<defs>
<linearGradient id="paint0_linear_105_99" x1="0" y1="20" x2="40" y2="20" gradientUnits="userSpaceOnUse">
<stop stop-color="#2AABEE"/>
<stop offset="1" stop-color="#229ED9"/>
</linearGradient>
</defs>
</svg>
